<svg width="60" height="123" viewBox="0 0 60 123" fill="none" xmlns="http://www.w3.org/2000/svg">
<path d="M0.0314941 62.2195V91.2957H29.1042V62.2195H0.0314941ZM21.721 78.3312C21.721 84.3024 18.5598 86.7154 14.3764 86.7154C10.3968 86.7154 7.40417 84.471 7.40417 78.419V66.9683H9.94368V78.4892C9.94368 82.8131 11.8685 84.6571 14.4642 84.6571C17.3128 84.6571 19.185 82.7604 19.185 78.4892V66.9683H21.721V78.3312Z" fill="white"/>
<path d="M30.9097 62.2195V91.2957H59.9824V62.2195H30.9097ZM52.7396 86.4555H50.2036L44.0428 76.5995C42.7038 74.5201 41.5001 72.3566 40.439 70.1225L40.3512 70.1506C40.4987 72.6094 40.5268 74.9276 40.5268 78.1591V86.4555H38.1664V67.0386H40.9307L47.1232 76.8735C48.4207 78.8982 49.5756 81.0108 50.5795 83.196L50.6673 83.1679C50.439 80.5721 50.3828 78.2153 50.3828 75.2121V67.0632H52.7396V86.4555Z" fill="white"/>
<path d="M0 93.0941V122.167H29.0762V93.0941H0ZM20.418 114.608C18.5704 116.424 15.5743 117.393 11.8054 117.393C10.2801 117.417 8.75481 117.342 7.2392 117.169V98.0712C9.01234 97.805 10.8027 97.67 12.5957 97.6673C16.196 97.6673 18.7601 98.4752 20.4566 100.059C22.2129 101.647 23.2209 103.923 23.2209 107.06C23.2209 110.196 22.1988 112.824 20.418 114.608Z" fill="white"/>
<path d="M12.2935 115.384C11.4475 115.413 10.6005 115.373 9.76099 115.265V99.9153C10.7285 99.7303 11.7124 99.6444 12.6974 99.6589C17.9942 99.6589 20.5899 102.511 20.5583 107.144C20.5583 112.388 17.6465 115.412 12.2935 115.384Z" fill="white"/>
<path d="M12.2935 115.384C11.4475 115.413 10.6005 115.373 9.76099 115.265V99.9153C10.7285 99.7303 11.7124 99.6444 12.6974 99.6589C17.9942 99.6589 20.5899 102.511 20.5583 107.144C20.5583 112.388 17.6465 115.412 12.2935 115.384Z" fill="white"/>
<path d="M30.9097 93.0624V122.139H59.9824V93.0624H30.9097ZM50.5408 107.53C49.2202 108.935 47.067 109.638 44.6083 109.638C43.9307 109.66 43.2528 109.602 42.5886 109.466V117.242H40.0842V98.0993C41.6733 97.815 43.2856 97.6798 44.8998 97.6954C47.3796 97.6954 49.1921 98.2749 50.3441 99.3146C50.9108 99.8238 51.3591 100.451 51.6577 101.152C51.9562 101.852 52.0977 102.61 52.0723 103.372C52.0723 105.121 51.5524 106.505 50.5408 107.53Z" fill="white"/>
<path d="M44.6716 107.748C43.9741 107.764 43.2772 107.697 42.5957 107.548V100.003C43.3755 99.8612 44.1671 99.7942 44.9596 99.8029C47.7274 99.8029 49.5258 101.036 49.5258 103.635C49.5258 106.234 47.7239 107.748 44.6716 107.748Z" fill="white"/>
<path d="M0.0314941 0.400024V60.3825H59.9999V0.400024H0.0314941ZM51.4751 31.6294C50.6357 32.8201 49.6206 33.9301 48.8443 35.1419C48.9321 34.183 49.0445 32.9993 48.6652 32.0895C47.9574 30.1197 47.4858 28.0728 47.2602 25.9919V25.17C47.7484 27.3652 49.9086 28.8791 49.7681 31.3414C49.7703 31.8926 49.6885 32.441 49.5257 32.9676L49.5608 33.0098L49.6592 32.8974C49.9788 31.6926 50.1369 30.4176 50.6357 29.2901C51.3382 27.6708 52.2233 26.034 51.865 24.0741C52.975 26.3923 52.6518 29.4727 51.4751 31.6294ZM50.1439 19.1882C50.8563 20.2262 51.2944 21.4276 51.4172 22.6805C51.5401 23.9335 51.3437 25.1971 50.8464 26.3537C50.461 27.3038 50.1909 28.2967 50.0421 29.3112C49.9683 29.1355 49.9542 28.8967 49.891 28.6965C49.329 26.5468 47.2918 25.0119 46.4523 22.9817C46.1789 22.3143 45.973 21.6212 45.8376 20.9128C46.7333 22.5672 48.9391 23.4207 49.5398 25.2437C49.7856 25.7074 49.7716 26.2975 49.9191 26.7787C49.9353 26.7797 49.9513 26.7744 49.9637 26.7639C49.9762 26.7535 49.9841 26.7386 49.9859 26.7225C49.7502 24.8289 49.7751 22.912 50.0596 21.0252C50.0421 20.0172 49.9472 19.0442 49.3887 18.268C49.74 18.4752 49.9016 18.8756 50.1439 19.1882ZM49.1499 18.8194C49.5222 20.4984 48.9813 22.1352 49.322 23.8317C48.4088 22.0333 46.4664 21.1868 45.1351 19.7467C44.4165 18.8973 43.9633 17.8554 43.832 16.7506C44.5977 18.5981 46.6595 19.0056 47.8433 20.5546C48.2402 20.9058 48.3701 21.4116 48.6265 21.8191L48.6652 21.7769C47.9837 20.3228 47.7554 18.6859 47.2883 17.1369C47.0308 16.4263 46.5596 15.8128 45.9395 15.3807C47.4779 15.7109 48.8232 17.3336 49.1499 18.8194ZM44.9911 14.9557C46.1678 16.0094 46.6947 17.3617 47.0389 18.7702L47.2286 19.2163C45.5086 17.9683 44.0394 16.4073 42.8977 14.615L41.57 13.2697C42.7396 13.7755 43.9936 14.0706 44.9911 14.9662V14.9557ZM22.7607 13.6631C25.0257 12.5541 27.5097 11.9649 30.0315 11.9385C33.0469 11.9565 35.9964 12.8225 38.543 14.4374C41.0896 16.0523 43.1306 18.351 44.4326 21.0709C46.15 24.5616 46.525 28.5617 45.4864 32.3108C44.3905 36.5855 40.7937 40.9093 36.6069 42.6691C31.8931 44.9803 25.1913 44.4007 20.9904 41.387C15.1492 37.3863 12.7572 30.4984 14.5239 23.6772C15.5988 19.6273 18.8197 15.5423 22.7607 13.6631ZM18.1383 13.505C16.9651 14.5342 16.1572 15.8549 15.2791 17.0562C14.4958 18.0221 13.4983 18.6614 12.6097 19.4903C13.0909 18.4998 13.1084 17.3161 13.7863 16.4063C14.7523 14.7204 16.5436 14.1268 18.1383 13.505ZM11.7175 17.0913C12.2471 16.4048 12.9876 15.9112 13.825 15.6863C12.2479 16.7716 12.3462 18.7211 11.8439 20.3438C11.6824 20.9445 11.4049 21.4959 11.2679 22.1001L11.31 22.1317C11.603 21.4078 12.0459 20.7542 12.6097 20.2139C13.7372 19.1601 15.4196 18.5279 15.9535 16.9929C15.9289 19.1285 14.1446 20.804 12.4411 22.0052C11.7246 22.5873 11.1281 23.3031 10.6848 24.1127C10.6462 23.5788 10.7691 23.0344 10.7305 22.4583C10.5373 20.6002 10.3968 18.4752 11.7175 17.0913ZM8.51411 23.4629C8.46494 21.5767 9.2447 20.0347 10.3511 18.6297C10.3827 18.6297 10.4073 18.5806 10.446 18.5876C9.23065 20.4211 10.2352 22.7604 10.186 24.8609L10.0245 27.0105C10.0455 27.0105 10.0455 27.0913 10.1053 27.0632C10.1629 26.8187 10.2074 26.5713 10.2387 26.322C10.5373 24.5869 12.0266 23.3575 13.3473 22.1773C13.6281 21.8871 13.8553 21.5494 14.0182 21.1798C13.8978 22.0551 13.6505 22.9083 13.284 23.7123C12.2584 25.6898 10.3652 27.3301 10.021 29.6132C9.85588 27.446 8.35956 25.7882 8.51411 23.4629ZM7.59033 26.1464C7.69321 25.5448 7.86043 24.9561 8.0891 24.3902C7.60087 26.884 9.27632 28.6789 9.82778 30.8461C10.0596 31.6505 10.1193 32.5216 10.446 33.2838C10.4776 33.2838 10.5022 33.2838 10.5232 33.2416C9.70133 30.9585 10.8885 28.8264 12.0758 27.0245C12.3485 26.526 12.5495 25.9916 12.6729 25.4369C12.7993 26.4906 12.5394 27.6743 12.3849 28.7527C12.1003 30.1261 11.6824 31.4292 11.2925 32.7639C11.0868 33.6317 11.0688 34.5335 11.2398 35.4088L11.1204 35.314C10.2458 33.7088 8.52114 32.4513 8.01534 30.6951C7.51625 29.2337 7.3706 27.6749 7.59033 26.1464ZM7.50954 31.0217C7.70273 33.6701 10.5478 35.0681 11.8685 37.2564C12.1507 37.7314 12.4853 38.1732 12.8661 38.5735C12.7993 38.2925 12.5394 38.0537 12.4446 37.7657C11.9847 36.7934 11.8105 35.7105 11.9423 34.6431C12.0687 33.2908 12.6448 32.0368 12.4235 30.6143C13.5791 33.1152 13.2278 36.2342 13.8741 38.9424C14.0427 39.5324 14.387 40.0593 14.6118 40.6283C12.2303 39.0056 8.99181 37.4671 7.93807 34.4885C7.46388 33.4664 7.41471 32.1984 7.50954 31.0217ZM8.93561 37.0948C10.2598 40.0909 13.5826 40.3473 15.806 42.1773C16.1951 42.535 16.634 42.8344 17.1091 43.066L17.1302 43.0414C16.5696 42.5836 16.0775 42.0477 15.669 41.4503C14.3659 39.6378 14.8225 37.0948 13.846 35.1278C14.7425 36.1428 15.4931 37.2777 16.0765 38.4998C16.8773 40.4668 17.1794 42.6866 19.0269 44.1759C17.0248 43.5191 14.689 43.7053 12.9258 42.4724C11.015 41.3062 9.29388 39.3006 8.93561 37.0948ZM12.3462 42.7147C14.4713 45.1383 17.9662 44.3305 20.7761 44.9592C21.1626 45.0725 21.5643 45.1246 21.9669 45.1138C21.6156 44.896 21.159 44.9206 20.7902 44.7274C18.5703 43.9441 18.2437 41.5416 17.0354 39.9188C18.5773 40.9409 19.8699 42.3249 21.296 43.6596C22.3181 44.5518 23.5475 44.9662 24.8401 45.2332C24.531 45.3456 24.1376 45.3105 23.7863 45.4018C21.4646 45.9778 18.8689 46.9121 16.4101 46.0691C14.6746 45.5054 13.2205 44.2989 12.3462 42.6972V42.7147ZM41.2293 48.3558C38.8302 49.2514 36.3294 48.3171 34.4572 46.8946C33.7196 46.4134 33.0171 45.7109 32.0442 45.7671C31.7088 45.7491 31.3726 45.7811 31.0466 45.8619C32.9177 46.7408 34.6275 47.9282 36.1046 49.3744C35.8209 49.6751 35.5144 49.9534 35.1878 50.2068C33.702 48.6016 32.0266 47.0456 30.2001 46.1534C29.8343 46.2376 29.486 46.385 29.171 46.589C27.5928 47.5572 26.201 48.8003 25.0614 50.2595L24.1025 49.4692C25.568 47.9697 27.2891 46.7434 29.185 45.8479C27.3655 45.2753 26.1748 46.7997 24.7909 47.576C23.1822 48.6965 20.8604 49.2233 18.9075 48.4506C17.8125 48.0726 16.8411 47.4035 16.0975 46.5152C17.636 47.569 19.9191 47.6849 21.6578 47C24.0006 45.9813 26.4277 44.6958 29.2482 45.3105C29.6908 45.3105 30.1228 45.7601 30.5373 45.3842C32.6552 44.8811 34.8836 45.1619 36.8106 46.1745L38.6722 46.9157C40.4003 47.5549 42.6378 47.3828 44.1165 46.322C43.3595 47.2487 42.3599 47.9467 41.2293 48.3382V48.3558ZM43.8004 45.897C41.1063 46.9121 38.3982 45.6687 35.8165 45.2507L35.3213 45.1875C36.5542 44.91 37.7519 44.5412 38.7354 43.6526C40.179 42.2476 41.4681 40.8426 43.0733 39.7362C41.8826 41.2641 41.7596 43.4348 39.7927 44.4183C39.3009 44.7379 38.6897 44.7941 38.184 45.0365C38.904 45.0365 39.5573 44.7941 40.2704 44.7239C42.9082 44.3129 45.9254 44.7239 47.773 42.4864C47.0846 43.9968 45.3705 45.3105 43.8004 45.8619V45.897ZM45.2932 43.1573C43.9233 43.5261 42.4516 43.6455 41.1134 44.0987C43.3754 42.1563 43.2489 39.1531 44.7593 36.8665C45.2034 36.1931 45.6841 35.5447 46.1994 34.9241C45.2827 36.7716 45.6796 39.1601 44.6223 40.9515C44.1895 41.6882 43.639 42.3491 42.9925 42.9079C43.2033 42.9079 43.3894 42.7183 43.5686 42.5953C45.2897 40.8883 47.5271 40.4071 49.3817 39.0161C50.1446 38.443 50.749 37.6851 51.1379 36.8138C50.7797 39.6132 47.9592 42.2722 45.3108 43.1222L45.2932 43.1573ZM48.6933 38.3206C47.6395 39.0231 46.5507 39.6624 45.532 40.4527V40.3614C47.1021 37.7551 46.3329 34.1794 47.2883 31.3203L47.6395 30.3649C47.4393 32.1422 48.2121 33.6561 48.1629 35.4439C48.1038 36.4817 47.7652 37.4842 47.1829 38.3452H47.2777C48.047 37.3407 48.6476 36.2694 49.5433 35.3069C50.9307 33.9652 52.3533 32.5918 52.5324 30.7407C53.0136 33.8036 51.282 36.5258 48.6933 38.2855V38.3206Z" fill="white"/>
<path d="M29.568 25.9708C29.4475 26.1336 29.2956 26.2706 29.1212 26.3738C28.9469 26.4769 28.7537 26.5441 28.5529 26.5714C28.4511 26.6979 28.4757 26.9789 28.2263 26.9543C28.149 27.1299 27.875 27.2353 27.9804 27.4917C27.9035 27.793 27.8576 28.1013 27.8434 28.412C27.3692 28.7035 27.4922 28.0186 27.2709 27.8745L27.1866 28.008C27.0953 28.0326 27.0285 27.9764 26.9618 27.9132C26.9237 27.8899 26.88 27.8776 26.8353 27.8776C26.7907 27.8776 26.747 27.8899 26.7089 27.9132C26.6035 28.0888 26.4455 28.2328 26.4841 28.4717C26.4384 28.6157 26.1961 28.5665 26.2277 28.7175C26.4998 28.7062 26.7702 28.6697 27.0356 28.6087C27.2217 28.6543 27.3868 28.5208 27.5554 28.5138C27.6151 28.5454 27.6959 28.6087 27.6678 28.7035H27.7486C27.8099 28.6635 27.8559 28.6038 27.8788 28.5342C27.9018 28.4646 27.9005 28.3893 27.875 28.3206C27.875 28.152 28.0788 28.152 28.1876 28.1029C28.2895 28.152 28.2263 28.2539 28.2438 28.3382C28.5951 28.4717 28.156 28.7351 28.1069 28.9248C28.0577 29.1144 28.1069 29.4235 27.8048 29.3744C27.7766 29.3662 27.7526 29.3473 27.7382 29.3216C27.7238 29.296 27.7199 29.2658 27.7275 29.2374H27.6854C27.6867 29.3101 27.7076 29.3811 27.7459 29.443C27.7843 29.5048 27.8386 29.5551 27.9031 29.5886C28.1209 29.406 28.1314 29.0934 28.4546 29.0547C28.6197 28.8791 28.3808 28.6087 28.6302 28.4646C29.0447 28.4646 29.4873 28.2785 29.8174 28.6122C29.7928 28.7597 29.7402 28.8264 29.8596 28.9423C29.7997 29.1386 29.7018 29.3212 29.5716 29.4797C29.5906 29.5326 29.5928 29.5901 29.5777 29.6442C29.5626 29.6984 29.531 29.7465 29.4873 29.7818C29.3784 30.2701 28.8199 30.0382 28.4932 30.2068C28.9988 30.5791 29.625 30.7494 30.2495 30.6845C30.6007 30.6845 30.4427 30.2455 30.6007 30.0558C30.7096 29.4973 31.2259 29.8802 31.5385 29.7256C31.6713 29.4966 31.7617 29.2455 31.8055 28.9845C31.7106 28.921 31.6386 28.8287 31.6001 28.7212C31.5615 28.6137 31.5584 28.4967 31.5912 28.3874C31.4578 28.2012 31.4718 27.864 31.1732 27.8324C31.1573 27.8013 31.1522 27.7659 31.1585 27.7316C31.1649 27.6973 31.1824 27.666 31.2084 27.6427C31.2084 27.4671 31.3735 27.4074 31.4226 27.2915C31.24 27.1721 31.2892 26.9086 31.3032 26.7541C30.9906 26.8454 30.952 26.4344 30.7272 26.3466C30.671 26.164 30.4708 26.1324 30.3127 26.1008C29.9298 26.2834 29.8666 25.8127 29.5786 25.7003C29.547 25.6125 29.4802 25.4861 29.5786 25.4158C29.6769 25.3456 29.9298 25.4158 30.0809 25.3877L29.9439 25.3175C29.8174 25.1735 29.5399 25.2613 29.3714 25.3175C29.5364 25.4826 29.4697 25.7706 29.568 25.9708Z" fill="white"/>
<path d="M30.376 18.3628C30.6821 18.3172 30.994 18.3279 31.2963 18.3944C32.8504 18.6013 34.3276 19.1956 35.592 20.1225C35.4209 19.9692 35.2987 19.7688 35.2408 19.5465C35.2515 19.5322 35.2663 19.5215 35.2832 19.5159C35.3002 19.5102 35.3185 19.5099 35.3356 19.5149C35.3356 19.2655 35.0897 19.1391 35.0511 18.9143C35.0693 18.8856 35.096 18.8634 35.1276 18.8507C35.1591 18.8381 35.1938 18.8358 35.2267 18.844C35.4874 19.0942 35.7227 19.3695 35.9292 19.6659C36.1048 19.5957 36.2488 19.7081 36.3788 19.7994C36.6071 19.9364 36.4666 20.2349 36.6422 20.393C36.6739 20.8637 37.2464 21.1306 37.2183 21.6013C37.2183 21.7102 37.3588 21.6259 37.408 21.6821L37.8857 22.2687C37.8693 22.2955 37.8585 22.3254 37.8539 22.3565C37.8493 22.3876 37.851 22.4193 37.8588 22.4498C37.8667 22.4802 37.8806 22.5088 37.8997 22.5338C37.9187 22.5588 37.9426 22.5797 37.97 22.5953C38.1842 22.6972 38.3212 22.4232 38.5179 22.4618C38.827 22.6375 38.4687 22.8447 38.5003 23.0379C38.6198 23.0379 38.7743 22.9431 38.8691 23.0625C38.9078 23.2381 38.7251 23.3505 38.6514 23.4629C38.6514 23.6385 38.7954 23.5999 38.9253 23.6385C38.9586 23.6412 38.9908 23.6513 39.0196 23.6682C39.0484 23.685 39.073 23.7081 39.0915 23.7358C39.1101 23.7635 39.1222 23.7951 39.1269 23.8281C39.1315 23.8611 39.1287 23.8948 39.1185 23.9265C39.5154 24.341 38.9991 24.7906 39.1888 25.2297C39.2315 25.3662 39.2344 25.5121 39.1971 25.6503C39.1597 25.7884 39.0837 25.913 38.978 26.0094C38.978 26.3607 38.6654 26.5785 38.5425 26.8735L38.135 26.9543C37.9173 27.1685 38.3212 27.4355 38.0999 27.569L38.9991 27.5865L38.9008 27.4917C38.8343 27.3051 38.8105 27.1061 38.8312 26.9091C38.8519 26.7122 38.9164 26.5223 39.0202 26.3537C39.1046 26.0365 39.2489 25.7385 39.4452 25.4755C39.5014 25.4755 39.6033 25.3561 39.6524 25.4755C39.6819 25.758 39.6346 26.0432 39.5154 26.301C39.7754 26.6522 39.7402 27.1475 39.7613 27.6006C40.5551 27.5514 41.3314 27.5374 42.1076 27.5479L42.0374 27.3933C41.9481 25.9603 41.5907 24.5568 40.9837 23.2557C40.8186 23.2557 40.6956 23.3997 40.506 23.3505C40.4746 23.3384 40.4481 23.3165 40.4303 23.2879C40.4126 23.2594 40.4046 23.2259 40.4076 23.1924C40.1349 22.8506 39.8429 22.5246 39.533 22.216C39.1185 22.2546 38.9359 21.7839 38.5706 21.7348C38.2439 21.6013 38.4687 21.0709 37.9945 21.2184C37.8728 21.1777 37.7631 21.1072 37.6754 21.0133C37.5877 20.9195 37.5247 20.8053 37.4923 20.681C37.5137 20.4694 37.4837 20.2558 37.4048 20.0582C37.3259 19.8607 37.2005 19.6851 37.0392 19.5465C36.7476 19.4411 36.6317 19.824 36.3367 19.7608C36.1786 19.68 36.2488 19.4727 36.1997 19.3393C36.1505 19.2058 36.01 19.132 36.0346 18.9705C36.4104 18.4752 35.578 18.4857 35.7606 17.9975C35.7114 17.6463 35.3532 17.5058 35.1705 17.2283C33.9478 16.6605 32.6444 16.2861 31.3068 16.1183C30.9556 16.0692 30.6429 16.1429 30.3479 15.9849L30.4252 16.1324C30.3971 16.877 30.4498 17.6673 30.376 18.3628Z" fill="white"/>
<path d="M29.2975 37.8465C27.4222 37.7393 25.6238 37.0644 24.1412 35.9111C24.1903 36.1008 24.4432 36.2273 24.373 36.4626C24.236 36.6839 23.9585 36.6874 23.7372 36.6839C23.2771 36.6066 22.9434 36.9543 22.5149 37C22.1215 37.1194 21.9845 36.6488 21.6262 36.6839C23.8461 38.6192 26.3856 39.8451 29.3537 39.9961L29.5785 40.1472L29.4801 39.8767V37.7692L29.2975 37.8465Z" fill="white"/>
<path d="M18.0649 28.6262L18.237 30.0944C18.3073 30.6634 18.5566 31.2078 18.5391 31.7663C18.6269 31.6469 18.5742 31.4151 18.7885 31.3835C18.7007 31.2078 18.9571 31.0533 18.8131 30.9023C18.8267 30.5059 18.9899 30.1295 19.2697 29.8485C19.6771 29.8485 19.7052 29.2935 20.1162 29.2725C20.3234 29.2725 20.4499 29.5429 20.5412 29.6237C20.4377 29.4513 20.3695 29.2601 20.3405 29.0611C20.3116 28.8621 20.3225 28.6593 20.3726 28.4646L20.197 28.5454C19.4533 28.575 18.7084 28.5597 17.9666 28.4997L18.0649 28.6262Z" fill="white"/>
<path d="M21.1836 19.7607V19.9118L20.3196 21.0112C18.9146 22.9501 18.2332 25.198 18.033 27.6427L20.2247 27.6006L20.432 27.6813C20.3442 27.6251 20.3652 27.5303 20.3371 27.4495C20.4654 25.2141 21.3654 23.0925 22.8837 21.4467C22.2746 20.9291 21.7063 20.3655 21.1836 19.7607Z" fill="white"/>
<path d="M33.3125 33.6666C33.6005 33.8177 33.9482 33.8282 34.2538 33.9546C34.5243 34.0249 34.7105 34.3621 35.0476 34.2567C35.3392 34.0987 35.8169 34.3551 36.0101 34.0495C35.9784 33.7544 36.2349 33.5367 36.3613 33.2838L36.4526 33.2592C36.6142 33.4278 36.6072 33.6772 36.6774 33.8598C36.9022 33.621 37.0779 33.354 37.2781 33.1081C37.8209 32.3709 38.2168 31.5362 38.4442 30.6494C38.2308 30.6585 38.0195 30.6951 37.8155 30.7583C37.5836 30.7583 37.3027 30.8812 37.113 30.7197C37.0427 30.66 36.99 30.7548 37.0041 30.818C36.9198 30.9374 36.839 31.0885 36.6528 31.0323C36.4667 30.9761 36.5088 30.818 36.4597 30.7056C36.4615 30.7892 36.4484 30.8725 36.421 30.9515C36.2815 31.1149 36.1634 31.2955 36.0698 31.4889C35.9012 31.6715 35.6272 31.6083 35.4516 31.7594C35.42 32.1422 34.995 32.0614 34.7491 32.1844C34.7491 32.23 34.7877 32.2406 34.8123 32.2792C34.872 32.3042 34.9379 32.3098 35.0009 32.2953C35.0639 32.2808 35.1208 32.2469 35.1636 32.1984C35.5148 32.2897 35.427 31.8472 35.6237 31.7207C35.7888 31.6961 35.9503 31.5521 36.1225 31.6645C36.2867 31.8997 36.3557 32.1884 36.3156 32.4724C36.1225 32.6621 36.2208 32.9747 36.0838 33.1995C36.1154 33.4629 35.7923 33.5823 35.8344 33.8458C35.7751 33.8983 35.7052 33.9376 35.6296 33.9612C35.5539 33.9848 35.4741 33.9922 35.3954 33.9827C34.7532 33.7398 34.0808 33.5861 33.3968 33.5261C33.3691 33.5368 33.3458 33.5565 33.3305 33.5819C33.3153 33.6074 33.3089 33.6372 33.3125 33.6666Z" fill="white"/>
<path d="M21.6263 29.7327C21.6474 29.5887 21.4331 29.55 21.4577 29.406C21.6087 29.111 21.4577 28.6333 21.8581 28.5033C21.7325 28.5483 21.5986 28.5653 21.4657 28.5531C21.3329 28.541 21.2043 28.5 21.0889 28.433L21.2083 28.6262C21.2083 29.1531 21.4331 29.6554 21.3207 30.1928C21.4261 30.0382 21.4261 29.831 21.6263 29.7327Z" fill="white"/>
<path d="M33.291 30.7372C33.2899 30.8748 33.3358 31.0086 33.421 31.1166C33.7301 31.0709 33.6001 31.5029 33.8846 31.4678C34.0462 31.4186 33.8846 31.2817 33.9373 31.1798C33.8952 30.9374 33.6598 30.9129 33.4983 30.7688C33.4807 30.7232 33.4983 30.681 33.5369 30.6424C33.421 30.5757 33.3683 30.6494 33.291 30.7372Z" fill="white"/>
<path d="M36.6631 38.0783L36.7755 37.9273C37.2759 37.5698 37.7458 37.1715 38.1805 36.7366H38.2402C38.1419 36.705 38.0189 36.7998 37.9101 36.7366C37.6817 36.6312 37.6466 36.431 37.6466 36.1992L36.6631 35.1841L36.6104 35.033C36.5278 35.2079 36.4079 35.3626 36.2592 35.4861C36.2592 35.6161 36.2205 35.8093 36.3751 35.8936C36.6912 35.999 37.1057 36.2097 37.1794 36.5961C37.0495 36.9473 36.3786 37.267 36.7931 37.6498C36.9336 37.8465 36.6104 37.9168 36.6631 38.0783Z" fill="white"/>
<path d="M25.4444 29.8486C25.3671 29.8064 25.3566 29.8169 25.2934 29.8872C25.2545 29.8996 25.2128 29.8996 25.1739 29.8872C25.1739 29.4341 24.6646 29.7045 24.4714 29.4657C24.6962 29.8802 24.8227 30.3508 25.044 30.7653C25.1915 31.1165 25.5076 31.4221 25.6551 31.7839C25.8575 31.4948 26.0882 31.2266 26.3436 30.9831C26.352 30.9284 26.3495 30.8727 26.3363 30.819C26.323 30.7654 26.2992 30.7149 26.2663 30.6705C26.1961 30.5019 26.2663 30.263 26.1328 30.119C25.9291 30.1928 26.2066 30.4 26.1328 30.5229C26.1143 30.533 26.0935 30.5382 26.0724 30.5381C26.0513 30.5381 26.0306 30.5327 26.0121 30.5226C25.9936 30.5125 25.9779 30.4979 25.9665 30.4802C25.9551 30.4624 25.9482 30.4421 25.9467 30.4211C25.8568 30.4014 25.7736 30.3586 25.7052 30.2971C25.6369 30.2355 25.5857 30.1572 25.5568 30.0698C25.6762 29.968 25.4865 29.9258 25.4444 29.8486Z" fill="white"/>
<path d="M39.1147 19.1882C39.2869 19.2268 39.336 19.427 39.466 19.5394C40.0455 19.8485 40.1966 20.4738 40.7094 20.825C40.9974 21.4291 41.6613 21.8787 41.6859 22.5812C42.4223 24.1363 42.8346 25.8249 42.8977 27.5443L42.838 27.6392C42.9066 27.6365 42.9723 27.6105 43.0241 27.5654L45.3318 27.5268C45.1808 27.302 45.2405 26.9753 45.2019 26.7049C44.8963 23.1467 43.3789 20.1014 40.9869 17.4179C40.4934 18.0213 39.9619 18.5927 39.3957 19.1285L39.1147 19.1882Z" fill="white"/>
<path d="M30.952 25.1068C31.1347 25.2122 31.2365 25.0225 31.3946 24.9803C31.6055 25.0352 31.7922 25.1588 31.925 25.3316C32.069 25.3948 32.206 25.3105 32.3324 25.2613C32.4238 24.5975 33.2527 24.6958 33.4986 24.0706L33.3475 24.1303C33.2843 24.039 33.1262 24.0776 33.1333 23.9371C33.2671 23.7783 33.4305 23.6471 33.6145 23.5508C32.9144 23.0824 32.1452 22.7268 31.3349 22.497C31.0118 22.4512 30.6916 22.3867 30.376 22.3038C30.527 22.7605 30.376 23.4278 30.4884 23.9582L31.0609 24.1479C31.233 23.8704 31.5983 23.7966 31.7634 23.5508C31.8688 23.4629 31.9882 23.5508 32.069 23.6456C32.0831 23.8719 32.0471 24.0986 31.9636 24.3095C31.7494 24.7415 31.2365 24.7942 30.952 25.1068Z" fill="white"/>
<path d="M39.4662 30.4773C39.1654 31.5638 38.691 32.5945 38.0612 33.5296C37.7978 33.8809 37.5379 34.3305 37.2007 34.5061L37.9348 35.1454C37.9734 35.1067 37.9348 35.04 37.9629 34.9873C37.991 34.9346 38.0086 34.7766 38.128 34.7941C38.4792 34.7941 38.4792 35.1454 38.6865 35.3526C38.6443 35.6582 38.9113 35.897 38.8199 36.178C40.7683 34.1052 41.9075 31.4016 42.0303 28.5595L42.1357 28.433C41.4332 28.5033 40.6605 28.4541 39.9193 28.4646L39.7402 28.4084C39.7461 28.8907 39.7097 29.3726 39.6313 29.8486L39.8912 30.1331C39.923 30.1891 39.935 30.2541 39.9255 30.3178C39.9159 30.3814 39.8853 30.4401 39.8385 30.4843C39.7846 30.5249 39.7187 30.5463 39.6512 30.545C39.5837 30.5437 39.5186 30.5199 39.4662 30.4773Z" fill="white"/>
<path d="M37.4746 28.3558L37.7205 28.5982C37.9664 28.7703 37.8013 29.1251 38.0717 29.2726C38.3422 29.4201 38.4932 29.7924 38.6337 30.0629C38.6672 29.989 38.6908 29.9111 38.704 29.8311C38.8129 29.392 38.7953 28.8968 38.9323 28.4647C38.4443 28.5352 37.9467 28.4981 37.4746 28.3558Z" fill="white"/>
<path d="M32.926 19.7186C32.0873 19.4544 31.2251 19.2721 30.3513 19.1741L30.4321 19.3498V21.5134L30.6429 21.4748C31.9443 21.6164 33.1804 22.1188 34.2115 22.9255L34.2677 23.0941C34.619 22.5918 35.1704 22.1597 35.5919 21.6891L35.9923 21.4537L35.7991 21.3765C34.9491 20.6552 33.9757 20.0936 32.926 19.7186Z" fill="white"/>
<path d="M37.5414 23.4067C37.2368 22.9052 36.8838 22.4346 36.4877 22.0017L36.4491 22.1001C35.7114 22.8623 34.9036 23.6561 34.2046 24.4394C34.2497 24.5374 34.3247 24.6186 34.4189 24.6712C34.4505 24.478 34.5558 24.3199 34.5734 24.1127C34.7596 23.8493 35.0511 24.0144 35.297 24.0706C35.6798 23.9827 36.0416 24.1584 36.4315 24.1513C36.723 24.2954 36.7476 24.6642 37.0075 24.8082C37.0813 24.91 37.0251 25.0295 36.9268 25.1102C37.0075 25.7109 37.278 24.9522 37.6011 25.1102C37.7276 25.1594 37.8857 25.1419 37.9805 25.2788C38.0297 25.5282 38.3317 25.4826 38.3317 25.7179C38.3072 25.8373 38.1807 25.8689 38.0964 25.9357C38.1737 26.1745 37.854 26.3256 37.9629 26.582C38.4266 26.6698 38.4441 26.1324 38.6654 25.8795C38.5769 25.4581 38.4266 25.0521 38.2193 24.6747C37.9594 24.6185 37.7978 24.3235 37.5168 24.2497C37.0181 24.0284 37.6082 23.7088 37.5414 23.4067Z" fill="white"/>
<path d="M32.3918 32.3635C32.5814 32.1668 32.9854 32.1738 33.0029 31.8893C32.7219 31.8436 32.5814 31.9982 32.3918 32.1492C32.3637 32.2089 32.2794 32.3213 32.3918 32.3635Z" fill="white"/>
<path d="M29.5047 40.955L29.5855 40.8356L29.3397 40.8988C26.286 40.7558 23.3886 39.5074 21.1872 37.3864L21.1626 37.4812L19.5188 39.1356C21.8995 41.2809 24.8644 42.6698 28.0365 43.1257C28.5691 43.1565 29.0993 43.2198 29.6242 43.3154L29.5047 43.1257V40.955Z" fill="white"/>
<path d="M30.9272 33.8598C31.138 33.8984 30.9904 34.1232 31.1415 34.211C31.4681 34.1057 31.721 34.4885 31.981 34.2497C31.981 33.8738 32.3919 33.8984 32.6202 33.8106C32.9715 33.5929 33.3895 33.3083 33.3508 32.8271L33.2911 32.7569C33.0417 32.7569 32.9153 32.9466 32.7361 33.1081C32.557 33.2697 32.3849 32.8693 32.2128 32.9571C32.2128 32.9957 32.262 33.0133 32.2936 33.0309C32.321 33.0632 32.3361 33.1043 32.3361 33.1468C32.3361 33.1892 32.321 33.2303 32.2936 33.2627C32.0231 33.5086 31.8967 33.1397 31.6367 33.1643V33.2627C31.6367 33.3189 31.6367 33.4032 31.5454 33.3716C31.3803 33.1081 31.0537 33.2065 30.8921 32.9747C30.7937 32.9185 30.6954 32.9747 30.6251 33.0555C30.5654 33.1749 30.3125 33.0555 30.3758 33.2486C30.1756 33.3189 30.1545 33.5296 30.0245 33.6631C29.7751 33.6174 29.6733 33.8984 29.4309 33.8949C29.4555 33.9406 29.4309 34.0214 29.5012 34.0284C29.6474 34.09 29.808 34.1095 29.9648 34.0846C30.2072 33.6842 30.59 34.0038 30.9272 33.8598Z" fill="white"/>
<path d="M20.6673 36.8068C20.3897 36.5805 20.1398 36.3223 19.9226 36.0375C19.7824 36.0009 19.6508 35.9366 19.5356 35.8486C19.4204 35.7605 19.3239 35.6504 19.2517 35.5247C19.1709 35.4334 19.2517 35.2753 19.1569 35.2121L19.0585 35.3315C18.7776 35.465 18.6792 35.177 18.486 35.0611C18.2366 34.9241 18.3596 34.4534 18.0189 34.5377C17.8959 34.5377 17.8538 34.3867 17.773 34.3094C17.4639 34.3375 17.3831 33.9968 17.2145 33.8282C17.1829 33.902 17.2145 33.9968 17.1197 34.0425C16.8 34.1162 16.6876 33.7263 16.4699 33.5613C16.4137 33.5858 16.375 33.6561 16.2942 33.6385C16.197 33.5539 16.1176 33.4506 16.0609 33.3347C16.0042 33.2189 15.9713 33.0929 15.9641 32.9641C15.7006 32.6656 15.8236 32.1984 15.8692 31.8366C15.9184 31.7418 16.0589 31.6891 16.0308 31.5662C16.1046 31.3976 16.2802 31.3835 16.4488 31.3765C16.5141 31.4117 16.5688 31.4638 16.6068 31.5275C16.7122 31.4608 16.9581 31.5275 16.8562 31.3027C17.0092 31.1931 17.1887 31.1264 17.3761 31.1096C17.4758 31.2863 17.5935 31.4523 17.7273 31.6048L17.6184 31.4327C17.4117 30.6368 17.2823 29.8228 17.2321 29.0021C17.2321 28.9529 17.1302 28.9283 17.1899 28.8826V28.9072C17.1858 28.757 17.1941 28.6066 17.2145 28.4576L17.0002 28.5384H14.7769C14.8917 30.9975 15.5605 33.3989 16.7333 35.5634C17.3023 36.6171 18.1383 37.5655 18.8408 38.549L20.4319 36.9016L20.6673 36.8068Z" fill="white"/>
<path d="M27.9204 34.8574C28.0871 34.6826 28.293 34.5502 28.5211 34.471C27.8186 34.615 27.1863 34.1197 26.5787 33.8212C26.2274 33.5683 25.7884 33.3575 25.5811 32.9747C25.1034 33.5669 24.5706 34.1126 23.99 34.6045C24.2359 34.6045 24.3728 34.8925 24.5836 35.0154C25.7813 36.013 27.2741 36.4942 28.6616 36.8384L28.2822 36.6593C27.9942 36.3326 27.5797 35.9568 27.5797 35.4931C27.8572 35.3913 27.8256 35.0751 27.9204 34.8574Z" fill="white"/>
<path d="M30.4145 40.0909C31.0046 39.8907 31.693 39.9223 32.3323 39.8169C32.1964 39.7864 32.0735 39.7139 31.9811 39.6097C31.6052 39.5851 31.4296 39.1952 31.3102 38.9072C31.254 38.6965 31.4015 38.5173 31.4893 38.3347C31.3277 38.0045 30.8325 38.2434 30.5445 38.1274C30.4637 38.0607 30.4075 37.9659 30.2986 37.9483L30.4145 38.1274C30.4545 38.7813 30.4545 39.437 30.4145 40.0909Z" fill="white"/>
<path d="M38.8723 37.2177C38.644 37.6533 38.1698 37.9202 37.7764 38.2715C37.2566 38.7913 36.4101 38.9002 36.1431 39.6554C35.8657 39.9083 35.7708 40.3087 35.3809 40.4527C35.2334 40.8355 34.826 40.8039 34.5941 41.0884C33.9233 41.6891 33.4912 40.7091 32.8836 40.5897L31.6612 40.8039C31.2362 40.8039 30.8147 40.955 30.4143 40.8039C30.474 41.64 30.474 42.4793 30.4143 43.3153L30.5653 43.217C34.3067 43.0661 37.8677 41.5693 40.5934 39.002L38.911 37.3968L38.8723 37.2177Z" fill="white"/>
<path d="M42.9365 28.4647L42.803 28.3663L42.8803 28.5841C42.7663 31.1512 41.8827 33.6246 40.3443 35.6828C40.0796 36.0666 39.7641 36.4128 39.4065 36.712C40.0454 37.2496 40.6409 37.8368 41.1873 38.4682L41.2505 38.3488C43.6862 35.6652 45.0978 32.209 45.2372 28.5876L45.3355 28.3979L45.2161 28.4541L42.9365 28.4647Z" fill="white"/>
<path d="M17.2531 27.6674L17.211 27.3548C17.344 24.8902 18.1761 22.5144 19.61 20.5054C19.9612 20.098 20.2317 19.5887 20.6813 19.2831C20.1614 18.7949 19.6275 18.2294 19.0726 17.692L19.0164 17.4742C16.7691 19.883 15.3331 22.9355 14.9103 26.2027C14.8225 26.6839 14.8822 27.1791 14.7874 27.6674C15.6079 27.6006 16.4325 27.6006 17.2531 27.6674Z" fill="white"/>
<path d="M23.4705 22.0615C22.3754 23.3222 21.6337 24.8504 21.3209 26.4907C21.2331 26.8735 21.2822 27.3196 21.1277 27.6814C21.4524 27.5829 21.7969 27.5684 22.1287 27.6393C21.9496 27.5444 22.0971 27.3126 21.9918 27.1862C21.9672 26.9895 21.9356 26.7401 22.1287 26.6101C22.1077 26.2835 22.4554 26.1149 22.48 25.8198C22.5678 25.4686 22.9507 25.7074 23.1333 25.5318C23.2527 25.4686 23.1333 25.3562 23.1333 25.2683C23.2914 25.0506 23.5407 25.0611 23.7304 24.9417C23.8632 24.7159 24.0473 24.5246 24.2678 24.3832C24.7455 24.3832 24.7561 23.7264 25.2092 23.7088C24.5949 23.1975 24.0142 22.6473 23.4705 22.0615Z" fill="white"/>
<path d="M26.2661 32.3389C27.0935 33.03 28.0901 33.4883 29.1534 33.6666C29.206 33.4523 29.1217 33.1819 29.2341 32.9957C29.3465 32.8096 29.5257 32.8271 29.6873 32.8587C29.7101 32.8554 29.7317 32.8464 29.75 32.8325C29.7684 32.8187 29.783 32.8004 29.7925 32.7794C29.802 32.7584 29.806 32.7353 29.8041 32.7124C29.8023 32.6894 29.7947 32.6672 29.7821 32.648C29.5538 32.6058 29.6556 32.3494 29.5749 32.2054C29.5749 32.1246 29.7189 32.1422 29.6873 32.0368C29.5257 31.9069 29.7645 31.7664 29.6311 31.6294C29.6697 31.6048 29.7013 31.5556 29.7399 31.5275C29.2552 31.7312 28.7424 31.4362 28.3139 31.2465C28.1031 31.1236 27.8011 31.0077 27.7554 30.7477C27.3971 31.3097 26.7438 31.819 26.2661 32.3389Z" fill="white"/>
<path d="M22.4554 28.4998L22.3922 28.9248C22.2974 29.1742 21.9848 28.988 21.8407 29.1566C21.6967 29.3252 21.8407 29.4833 21.9356 29.6097C21.7143 30.1226 22.4414 30.2841 22.4308 30.7443C22.6556 31.0358 22.3992 31.4468 22.7224 31.7067C22.7926 32.2265 22.6486 32.929 23.1052 33.3365L23.1825 33.8352C23.2738 34.1865 22.7715 34.0881 22.8313 34.3937C22.9296 34.3481 22.9507 34.4745 22.9577 34.5061C23.5921 33.7572 24.2775 33.0531 25.009 32.3986L24.7069 32.0931C24.1276 31.2644 23.7105 30.3336 23.4776 29.3498L23.2457 29.2339C23.1963 29.466 23.1587 29.7005 23.1333 29.9364L23.0525 30.0312C22.8875 30.0312 22.7821 29.8872 22.6381 29.7994C22.6029 29.7116 22.5151 29.5676 22.6381 29.4973C22.7066 29.4924 22.7747 29.511 22.8313 29.55C22.9015 29.4657 22.8699 29.3393 22.912 29.2269C22.9331 29.0337 22.7645 28.8756 22.8839 28.6895C23.035 28.6895 23.1474 28.8581 23.2106 28.9599C23.3652 29.0091 23.4846 28.8827 23.611 28.8265C23.611 28.6895 23.8007 28.5068 23.611 28.426C23.6936 28.1177 23.6936 27.793 23.611 27.4847C23.5267 27.2213 23.2317 27.2669 23.0139 27.2915C22.3676 27.4987 23.1193 27.994 22.9612 28.3839C22.8629 28.6262 22.624 28.4085 22.4554 28.4998Z" fill="white"/>
<path d="M26.9791 30.0804C26.9197 30.2831 26.8055 30.4654 26.6489 30.6073H26.6946C26.8843 30.4703 27.0248 30.2244 27.2671 30.2103L26.9791 30.0804Z" fill="white"/>
<path d="M29.5046 22.3916C28.213 22.5041 27.0038 23.0732 26.094 23.9968H26.2661C26.4628 24.19 26.7719 24.1478 26.9159 24.4078C26.9897 24.5483 26.7789 24.5342 26.7895 24.6536C26.8316 24.6852 26.8843 24.6923 26.9159 24.7485C27.0669 24.8012 27.0353 24.6607 27.095 24.5974C27.2917 24.4007 27.3269 24.7906 27.5165 24.7906C27.5474 24.7657 27.5829 24.7473 27.6211 24.7364C27.6592 24.7256 27.6991 24.7225 27.7385 24.7274C27.7778 24.7323 27.8158 24.7451 27.8501 24.765C27.8843 24.785 27.9143 24.8116 27.938 24.8433C28.068 24.7309 28.342 24.8433 28.3806 24.629C28.63 24.3656 28.493 23.9582 28.8583 23.7896C28.9883 23.8633 28.8583 23.9827 28.9005 24.0951C29.1463 24.197 29.4273 23.8844 29.624 24.1373C29.4848 23.5665 29.4444 22.9761 29.5046 22.3916Z" fill="white"/>
<path d="M21.2823 18.6824L21.3209 18.57C23.5488 16.4831 26.4546 15.2696 29.505 15.1524L29.4347 14.9627L29.4066 13.0414L29.4734 12.8201C26.3634 12.9463 23.3629 14.0036 20.8608 15.8549C20.3726 16.2062 19.9405 16.7014 19.4558 16.9929H19.5261C20.1622 17.5009 20.7501 18.0665 21.2823 18.6824Z" fill="white"/>
<path d="M29.4696 16.0621C27.2369 16.1767 25.0778 16.8981 23.2245 18.1485C22.7257 18.4997 22.2726 18.9388 21.7598 19.2444C22.3534 19.6167 22.8416 20.2419 23.3755 20.7372L23.4317 20.8882C24.7669 19.6402 26.43 18.7983 28.2262 18.4611C28.6448 18.3625 29.0761 18.3293 29.5048 18.3627C29.4387 17.5976 29.4269 16.8288 29.4696 16.0621Z" fill="white"/>
<path d="M29.3783 19.2269C27.4075 19.3916 25.5403 20.1789 24.0464 21.4748C24.654 21.8963 25.195 22.5742 25.7499 23.0625C25.793 23.0062 25.8329 22.9476 25.8694 22.8868C26.5962 22.3183 27.423 21.8906 28.307 21.6259C28.7039 21.5872 29.0973 21.3976 29.5118 21.4889C29.4275 20.7055 29.4275 19.9154 29.5118 19.132L29.3783 19.2269Z" fill="white"/>
<path d="M23.8285 35.5036L23.7969 35.4474L23.8285 35.5458V35.5036Z" fill="white"/>
<path d="M31.9073 12.9114C31.3852 12.8807 30.8655 12.8173 30.3513 12.7217C30.432 13.4532 30.4402 14.1909 30.3759 14.9241C30.3786 14.8554 30.4046 14.7898 30.4497 14.7379C30.5621 14.6712 30.6534 14.7695 30.6991 14.8468C30.7447 14.9241 30.7588 15.1524 30.6639 15.198C30.7588 15.198 30.8079 15.1418 30.8922 15.1418C32.6681 15.2708 34.3927 15.7953 35.9397 16.6768V16.6381C36.2488 16.4836 36.6422 16.2869 36.9688 16.5574C37.3517 16.4133 37.4254 16.884 37.7345 16.9402C37.945 17.0488 38.1298 17.2012 38.2764 17.3872C38.4231 17.5733 38.5281 17.7885 38.5846 18.0185C38.6513 18.1626 38.8796 18.2644 38.9112 18.419C39.1676 17.8745 39.6769 17.4882 40.1195 17.014L40.39 16.9016C38.0647 14.6946 35.0902 13.2954 31.9073 12.9114ZM33.4458 14.5447C33.3137 14.6848 33.1446 14.7845 32.9581 14.8324C32.7716 14.8803 32.5753 14.8743 32.3921 14.8152C31.8652 14.9205 31.1276 15.2226 30.7061 14.6817C30.685 14.6395 30.6393 14.5833 30.685 14.5447C30.7553 14.4183 30.9379 14.4639 31.0362 14.5026L32.1883 14.0108C32.6485 14.0495 33.1613 14.1057 33.4353 14.4885L33.4458 14.5447ZM37.9664 16.7646C37.5343 16.877 37.4957 16.3923 37.162 16.2693C37.1147 16.2019 37.0946 16.1191 37.1058 16.0375C37.2568 15.8549 37.4009 16.1604 37.5659 15.9989C37.6438 16.014 37.7167 16.0482 37.778 16.0985C37.8393 16.1487 37.8871 16.2135 37.9172 16.2869C37.8856 16.466 38.0963 16.6206 37.9664 16.7646Z" fill="white"/>
</svg>
