<?xml version="1.0" encoding="utf-8"?>
<!-- Generator: Adobe Illustrator 15.0.3, SVG Export Plug-In . SVG Version: 6.00 Build 0)  -->
<!DOCTYPE svg PUBLIC "-//W3C//DTD SVG 1.1//EN" "http://www.w3.org/Graphics/SVG/1.1/DTD/svg11.dtd">
<svg version="1.1" id="Ebene_1" xmlns="http://www.w3.org/2000/svg" xmlns:xlink="http://www.w3.org/1999/xlink" x="0px" y="0px"
	 width="257px" height="261.309px" viewBox="0 0 257 261.309" enable-background="new 0 0 257 261.309" xml:space="preserve">
<g>
	<g>
		<path fill="#009edb" d="M128.74,258.007c-69.18,0-125.469-57.219-125.469-127.555C3.271,60.121,59.561,2.886,128.74,2.886
			c69.172,0,125.445,57.234,125.445,127.566C254.186,200.789,197.912,258.007,128.74,258.007 M128.26,80.152
			c0.16,0,10.191,10.922,10.191,19.66c0,9.469-7.266,11.727-9.711,11.727c-0.121,0-0.27-0.008-0.43-0.016h-0.102
			c-0.156,0.008-0.309,0.016-0.422,0.016c-2.445,0-9.711-2.258-9.711-11.727C118.076,91.074,128.076,80.152,128.26,80.152
			 M33.795,137.546H45.24V116.05h19.219v-9H45.24V95.105H65.1v-8.977H33.795V137.546z M138.635,81.703h12.07l-14.027-51.43h-15.426
			l-14.539,51.43h11.18l3.215-11.496h14.629L138.635,81.703z M133.619,61.5H123.1l4.898-22.367h0.801L133.619,61.5z
			 M186.615,111.839c0,15.105,6.891,26.59,21.43,26.59c14.594,0,21.555-11.484,21.555-26.59s-6.961-26.59-21.555-26.59
			C193.506,85.25,186.615,96.734,186.615,111.839 M198.807,111.839c0-9.871,2.383-17.895,9.238-17.895
			c6.895,0,9.375,8.023,9.375,17.895s-2.48,17.902-9.375,17.902C201.189,129.742,198.807,121.71,198.807,111.839 M123.393,243.773
			c0.668-4.977,1.332-12.961,1.332-22.312v-1.578c0-13.164-0.477-17.609-9.133-20.531c-13.344-4.496-18.809-19.645-15.875-38.516
			L55.045,45.324C31.811,66.156,17.15,96.582,17.15,130.453C17.15,191.195,64.365,240.937,123.393,243.773 M128.686,170.128
			c-17.773-4.211-24.367-20.68-24.367-35.301L65.209,37.23c-2.555,1.793-5.031,3.707-7.426,5.699
			c8.605,20.73,47.207,113.883,47.254,114.02c6.836,16.738,19.266,11.188,22.273,25.008c0.719,3.34,0.766,4.809,0.766,4.809h1.336
			c0,0,0.016-1.469,0.766-4.809c3.008-13.82,15.406-8.27,22.25-25.008c0.047-0.137,38.656-93.289,47.25-114.02
			c-2.395-1.992-4.867-3.906-7.43-5.699l-39.102,97.598c0,14.621-6.609,31.09-24.383,35.301H128.686z M128.666,140.664
			c-7.539-1.711-16.93-9.316-18.152-19.109c-0.441-3.73-0.793-4.773-0.254-12.168L75.982,30.492
			c-2.758,1.516-5.449,3.156-8.082,4.902c10.246,23.418,41.574,94.949,41.598,95.035c4.965,10.617,13.66,10.82,16.66,17.152
			c1.805,3.746,1.969,7.105,2,7.379h1.137c0.031-0.273,0.219-3.633,1.992-7.379c3.023-6.332,11.719-6.535,16.664-17.152
			c0.031-0.086,31.367-71.617,41.609-95.035c-2.605-1.746-5.312-3.387-8.094-4.902l-34.234,78.895
			c0.539,7.395,0.18,8.438-0.289,12.168c-1.223,9.793-10.621,17.398-18.121,19.109H128.666z M129.143,127.265l0.52-4.297
			c2.164-10,9.301-8.746,14.25-18.559c0.02-0.039,0.078-0.145,0.078-0.145c0.152-0.363,24.402-53.258,34.52-75.348
			c-14.988-7.625-31.883-11.934-49.77-11.934c-17.875,0-34.785,4.309-49.785,11.934c10.121,22.09,34.352,74.984,34.551,75.348
			c0,0,0.047,0.105,0.078,0.145c4.922,9.812,12.043,8.559,14.203,18.559l0.523,4.297H129.143z M240.326,130.453
			c0-33.871-14.68-64.297-37.879-85.129L157.74,160.835c2.965,18.871-2.531,34.02-15.879,38.516
			c-8.652,2.922-9.125,7.367-9.125,20.531v1.578c0,9.352,0.695,17.336,1.332,22.312
			C193.131,240.937,240.326,191.195,240.326,130.453 M52.412,163.96c0,0,1.645,3.57,2.988,6.094c1.328,2.531,3.152,5.59,3.152,5.59
			l-2.945,1.738c0,0-2.238-3.785-4.289-8.156c-0.562,0.289-4.086,2.164-4.672,2.453c0.336,0.641,3.957,7.727,3.957,7.727
			l-2.984,1.746c0,0-3.668-7.25-3.984-7.863c-0.641,0.32-8.242,4.316-8.242,4.316l-1.824-3.676l18.629-9.867L52.412,163.96z
			 M64.186,183.378l2.594,3.176L50.475,200.41l-2.641-3.172l16.156-13.723L64.186,183.378z M79.279,197.91l3.23,2.34l-4.191,22.844
			l-3.688-2.156c0,0,0.918-4.656,1.031-5.109c-0.18-0.148-2.336-1.453-4.422-2.953c-2.117-1.547-4.188-3.277-4.383-3.414
			c-0.406,0.246-4.496,2.699-4.496,2.699l-3.164-2.75l19.871-11.379L79.279,197.91z M69.861,207.605
			c0.379,0.332,1.758,1.465,3.184,2.504c1.461,1.023,2.91,2.004,3.344,2.195c0.211-0.949,1.691-8.461,2.004-9.852
			C77.182,203.187,70.713,207.097,69.861,207.605 M92.725,206.308c0,0,3.434,1.746,8.32,3.449c3.336,1.172,6.172,2.086,8.945,2.711
			l-0.969,3.285c0,0-2.648-0.473-6.965-1.816c-0.238,0.719-5.852,17-5.852,17l-3.824-1.352c0,0,5.578-16.312,5.816-17.023
			c-4.012-1.523-6.812-3.039-6.812-3.039L92.725,206.308z M159.811,210.66c1.395,0.75,2.41,2.066,2.961,3.938
			c0.246,0.789,0.379,1.551,0.379,2.285c0,3.012-2.078,5.383-5.828,6.582c0,0-1.895,0.59-2.453,0.762
			c0.215,0.684,2.453,8.004,2.453,8.004l-3.723,0.98l-6.312-20.805l5.637-1.781C155.752,209.73,158.1,209.75,159.811,210.66
			 M151.924,214.585c0.18,0.633,1.746,5.715,1.934,6.344c0.777-0.234,2.477-0.789,2.477-0.789c0.562-0.168,1.898-0.707,2.531-1.945
			c0.211-0.402,0.312-0.855,0.312-1.312c0-0.359-0.07-0.727-0.18-1.117c-0.246-0.738-0.691-1.32-1.355-1.672
			c-1.145-0.625-2.691-0.465-3.648-0.176C153.994,213.917,152.443,214.41,151.924,214.585 M172.482,201.593l18.422,13.719
			l-3.273,2.348c0,0-3.703-2.863-4.07-3.137c-0.215,0.121-2.113,1.488-4.156,2.719c-1.941,1.188-4.027,2.238-4.238,2.359
			c0.09,0.492,0.812,5.082,0.812,5.082l-3.52,1.707l-3.086-22.969L172.482,201.593z M174.6,216.132
			c0.551-0.27,1.977-1.062,3.395-1.93c1.27-0.785,2.285-1.426,2.789-1.844c-0.738-0.578-6.496-5.023-7.684-5.965
			C173.334,207.921,174.447,215.179,174.6,216.132 M193.529,182.687l16.062,14.57l-2.895,3.449c0,0-15.066-4.473-17.344-5.094
			c1.695,1.645,11.043,11.66,11.043,11.66l-2.82,2.59l-15.145-15.637l3.566-3.234c0,0,14.531,4.41,16.812,5.027
			c-1.699-1.645-11.727-10.41-11.727-10.41L193.529,182.687z M200.873,171.812l18.605,10.969l-1.898,3.328l-18.699-11.004
			L200.873,171.812z M208.928,153.66l3.195,1.691l-0.32,0.375c-1.031,1.281-1.508,1.941-2,3.383
			c-0.238,0.656-0.523,1.922-0.039,2.875c0.234,0.5,0.66,0.863,1.273,1.059c1.414,0.492,2.633-0.77,4.039-2.223
			c1.965-2.031,4.402-4.531,8.332-3.188c3.996,1.379,5.352,4.996,3.703,9.914c-0.5,1.508-1.426,2.789-2.258,3.977l-0.199,0.262
			l-3.297-1.566l0.32-0.395c0.398-0.473,1.777-2.113,2.297-3.738c0.496-1.43,0.445-3.844-1.688-4.578
			c-1.777-0.625-3.105,0.766-4.656,2.395c-1.879,2.016-4.047,4.285-7.609,3.051c-1.566-0.543-2.734-1.551-3.395-2.898
			c-0.812-1.648-0.836-3.75-0.09-5.941c0.477-1.477,1.281-3.012,2.211-4.203L208.928,153.66z"/>
	</g>
</g>
</svg>
