<svg xmlns="http://www.w3.org/2000/svg" width="24" height="21" viewBox="0 0 24 21" fill="none">
  <g clip-path="url(#clip0_2504_8843)">
    <path d="M19.6823 4.96916C20.5577 6.65601 20.8046 8.9783 20.2377 10.8823C19.6617 13.1314 17.7692 15.408 15.5657 16.3337C13.0835 17.5497 9.55888 17.2457 7.34631 15.6617C4.27202 13.5543 3.01488 9.92458 3.94288 6.34058C4.50745 4.21258 6.20117 2.06401 8.27431 1.0743C9.44002 0.498299 10.7132 0.192013 12.1029 0.16687C15.2732 0.171442 18.3017 2.0343 19.6823 4.96916ZM12.2697 0.578299C12.32 0.909727 12.3086 1.36458 12.2835 1.73944C12.2835 1.70058 12.2995 1.66858 12.3223 1.63887C12.3817 1.60458 12.432 1.65487 12.4572 1.6983C12.4617 1.75773 12.4869 1.8583 12.4366 1.89258C12.4869 1.90173 12.512 1.86287 12.5577 1.86287C13.52 1.93373 14.4115 2.21716 15.2115 2.66973V2.64916C15.376 2.56916 15.5863 2.46401 15.7532 2.60801C15.9543 2.53258 15.9932 2.77944 16.1577 2.80916C16.3543 2.92801 16.5783 3.14516 16.6035 3.37601C16.64 3.45144 16.7589 3.5063 16.7749 3.5863C16.9097 3.30058 17.1795 3.09944 17.4103 2.8503L17.552 2.79087C16.2812 1.57944 14.7726 0.912013 13.0903 0.67887C12.8206 0.633156 12.5257 0.658299 12.2697 0.578299ZM11.7989 0.619442C10.1075 0.685727 8.60574 1.26401 7.27317 2.22173C7.01717 2.39773 6.78859 2.66744 6.52802 2.8183H6.56459C6.89602 3.06287 7.21145 3.4103 7.49488 3.7143L7.51545 3.65487C8.74288 2.53716 10.1737 1.9223 11.8149 1.84687L11.776 1.7463L11.7623 0.736013L11.7966 0.617156L11.7989 0.619442ZM13.2412 1.25487L12.6355 1.51544C12.5852 1.49487 12.4892 1.46973 12.4549 1.53601C12.4297 1.55658 12.4549 1.5863 12.464 1.60687C12.688 1.89258 13.0743 1.73258 13.3509 1.67773C13.552 1.7623 13.7463 1.66173 13.8972 1.53373V1.50401C13.7532 1.30287 13.4857 1.27316 13.2412 1.25258V1.25487ZM12.2606 2.29258L12.3017 2.37258C12.2926 2.76344 12.3177 3.17944 12.2812 3.54516C12.4412 3.4903 12.6057 3.55887 12.7657 3.56116C13.5909 3.69601 14.368 3.96116 15.0286 4.46858C14.9486 4.38401 14.8526 4.28801 14.8343 4.16687C14.848 4.15087 14.864 4.1463 14.8846 4.15087C14.8937 4.02058 14.7543 3.95201 14.7337 3.83544C14.7543 3.8103 14.784 3.78516 14.8252 3.79658C14.9692 3.93144 15.0903 4.07773 15.1955 4.23087C15.2869 4.19201 15.3646 4.25144 15.4309 4.30173C15.552 4.37258 15.4766 4.52801 15.5703 4.61258C15.5863 4.86173 15.8903 4.99887 15.872 5.24801C15.8766 5.30744 15.9475 5.26173 15.9726 5.28916L16.224 5.60001C16.1783 5.65944 16.2149 5.7303 16.2652 5.77144C16.3795 5.82173 16.4412 5.68001 16.5555 5.70058C16.72 5.79201 16.5303 5.90173 16.5463 6.0023C16.6103 6.00687 16.6903 5.95201 16.7406 6.01601C16.7612 6.10973 16.6652 6.16687 16.6263 6.2263C16.6263 6.31773 16.7017 6.29716 16.7703 6.31773C16.8457 6.31316 16.8915 6.40687 16.8709 6.46858C17.0812 6.68801 16.8069 6.92344 16.9097 7.1543C16.976 7.30516 16.8937 7.45373 16.8 7.56573C16.8046 7.75087 16.6355 7.86516 16.5692 8.02058L16.3543 8.06173C16.24 8.17601 16.4503 8.31316 16.3383 8.3863L16.8092 8.39544L16.7589 8.34516C16.6926 8.16001 16.7086 7.91087 16.8229 7.74858C16.8937 7.59773 16.912 7.41716 17.0469 7.28687C17.0766 7.27773 17.1315 7.22287 17.1566 7.28687C17.1657 7.43087 17.152 7.59316 17.0857 7.72116C17.2206 7.91544 17.2046 8.16687 17.216 8.40687C17.632 8.38173 18.0412 8.37259 18.448 8.37716L18.4092 8.29716C18.3452 7.52001 18.1875 6.78401 17.8629 6.11887C17.7737 6.12344 17.712 6.1943 17.6115 6.16916C17.5772 6.15544 17.5566 6.12344 17.5612 6.08458C17.392 5.92458 17.2869 5.7143 17.0995 5.57258C16.8846 5.59316 16.7886 5.3463 16.5943 5.32116C16.4229 5.2503 16.5395 4.97144 16.2926 5.04687C16.1715 4.99658 16.0526 4.90287 16.0275 4.76573C16.0275 4.5463 15.9863 4.31087 15.7875 4.16916C15.6366 4.1143 15.5726 4.31544 15.4217 4.28344C15.3372 4.2423 15.376 4.13258 15.3509 4.05944C15.3212 3.99544 15.2503 3.94973 15.2617 3.86516C15.4606 3.60458 15.0217 3.60916 15.1177 3.35316C15.0926 3.16801 14.9029 3.09716 14.8069 2.94858C14.1555 2.65373 13.504 2.45258 12.768 2.36344C12.5875 2.3383 12.4183 2.37716 12.2629 2.29258H12.2606ZM16.0663 2.30173C15.9772 2.3863 15.9017 2.2263 15.8217 2.3223C15.8172 2.36801 15.8263 2.41144 15.8515 2.44344C16.0275 2.50744 16.048 2.76344 16.2766 2.70401C16.3452 2.62858 16.2355 2.54858 16.256 2.45258C16.2263 2.36344 16.1509 2.32687 16.0663 2.30173ZM8.51659 3.43316C8.25602 3.61373 8.01602 3.84916 7.74631 4.00916C8.05717 4.20573 8.31317 4.53487 8.59659 4.79544L8.62631 4.87544C9.34174 4.18973 10.2126 3.78973 11.1497 3.59773C11.3737 3.57716 11.5955 3.50173 11.8149 3.54744C11.7989 3.14744 11.7646 2.73144 11.8057 2.33601C10.5852 2.40687 9.49259 2.77716 8.51659 3.43316ZM17.8629 3.05144C17.632 3.3623 17.3166 3.65258 17.0263 3.95201L16.8823 3.98173C16.9715 4.0023 16.9966 4.10744 17.056 4.17144C17.3623 4.33601 17.4423 4.66287 17.712 4.84801C17.8629 5.16344 18.2126 5.40801 18.224 5.76916C18.5897 6.57601 18.8389 7.43087 18.864 8.38173L18.8297 8.43201C18.8686 8.43201 18.9006 8.41601 18.9303 8.39316L20.1417 8.37258C20.0617 8.25373 20.096 8.0823 20.0755 7.9383C19.9155 6.0663 19.1155 4.46401 17.8629 3.05144ZM6.29717 3.08116C5.09945 4.41373 4.35888 5.93601 4.14402 7.67316C4.09831 7.92458 4.12802 8.18516 4.07774 8.44344C4.49831 8.40916 4.95774 8.40916 5.37831 8.44344L5.34859 8.27887C5.42859 6.93716 5.85831 5.74173 6.61031 4.6743C6.80002 4.45944 6.93945 4.18973 7.17488 4.02973C6.90059 3.77373 6.61488 3.4743 6.32917 3.19316L6.29945 3.07887L6.29717 3.08116ZM11.8286 3.96116L11.7577 4.0023C10.6903 4.07773 9.76459 4.52344 8.95317 5.19316C9.27317 5.41716 9.55888 5.77373 9.84917 6.02973C9.86974 6.00001 9.89031 5.9703 9.91317 5.93601C10.3132 5.6503 10.7246 5.38973 11.1955 5.27087C11.4057 5.2503 11.6115 5.14973 11.8309 5.20001C11.7852 4.80458 11.7852 4.36801 11.8309 3.95887L11.8286 3.96116ZM12.2697 3.9703L12.3109 4.06173L12.3017 5.2023L12.4115 5.18173C13.1086 5.27773 13.7486 5.50173 14.2995 5.95201L14.3292 6.04116C14.5189 5.77601 14.8046 5.54973 15.0263 5.29601L15.2366 5.17487L15.136 5.13373C14.6743 4.74744 14.1692 4.45258 13.6206 4.2583C13.1955 4.10744 12.7292 4.04344 12.2675 3.97258L12.2697 3.9703ZM7.44459 4.28573L7.43545 4.36573L6.98059 4.94173C6.23545 5.96344 5.88345 7.14516 5.77831 8.43201L6.93031 8.41144L7.04002 8.45258C6.99431 8.42287 7.00574 8.37258 6.98974 8.33144C7.08117 7.13373 7.50174 6.06401 8.33145 5.17258C8.01145 4.89601 7.71431 4.60116 7.44459 4.28573ZM15.4903 5.45601L15.4697 5.5063C15.0835 5.91087 14.6583 6.32687 14.288 6.7383C14.3132 6.78858 14.3543 6.8343 14.4023 6.85944C14.4183 6.75887 14.4732 6.66973 14.4823 6.56458C14.5829 6.42516 14.7337 6.5143 14.864 6.54401C15.0652 6.4983 15.2549 6.58973 15.4606 6.58516C15.6115 6.66058 15.6252 6.85487 15.7623 6.9303C15.8012 6.98516 15.7715 7.04687 15.7212 7.0903C15.7623 7.40573 15.9155 7.00573 16.0755 7.08116C16.1417 7.1063 16.2263 7.09716 16.2766 7.1703C16.3017 7.30058 16.4617 7.27544 16.4709 7.40116C16.4595 7.46516 16.3909 7.48116 16.3497 7.51544C16.3886 7.64116 16.2195 7.72116 16.2789 7.85601C16.5235 7.90173 16.5303 7.62058 16.6446 7.49487C16.5806 7.27544 16.5349 7.05373 16.4092 6.85944C16.2697 6.82973 16.1852 6.66516 16.048 6.63544C15.7783 6.5303 16.0892 6.36116 16.0572 6.20116C15.9132 5.93144 15.6869 5.69144 15.4926 5.45144L15.4903 5.45601ZM8.64688 5.49716C8.06631 6.19201 7.67088 6.95773 7.51545 7.8263C7.46974 8.02744 7.49488 8.26287 7.41488 8.45258C7.56117 8.38401 7.77602 8.41144 7.94059 8.43201C7.84459 8.38173 7.92459 8.26058 7.86974 8.19201C7.85602 8.08687 7.84002 7.95658 7.94059 7.88801C7.92917 7.71658 8.11202 7.62744 8.13031 7.47201C8.17602 7.29601 8.37945 7.41258 8.47545 7.32116C8.53945 7.28687 8.48459 7.22973 8.48459 7.18173C8.56917 7.06744 8.69945 7.07201 8.80002 7.0103C8.87088 6.90058 8.96459 6.78401 9.08117 6.71544C9.33259 6.72458 9.33717 6.3703 9.57717 6.36116C9.24802 6.11201 8.93717 5.78058 8.64688 5.49487V5.49716ZM12.2812 5.63658C12.3612 5.87658 12.2903 6.22858 12.3406 6.50744L12.6423 6.60801C12.7315 6.46173 12.9235 6.43201 13.008 6.29258C13.0629 6.24687 13.1269 6.29258 13.168 6.34287C13.1795 6.45716 13.152 6.56916 13.1177 6.67887C13.0035 6.90516 12.736 6.93487 12.5829 7.09944C12.6789 7.1543 12.7337 7.05373 12.8137 7.03316C12.9303 7.04458 13.024 7.14744 13.0949 7.22287C13.1703 7.25716 13.2412 7.21144 13.3097 7.18401C13.3555 6.8343 13.7943 6.88458 13.9246 6.55773L13.8446 6.58744C13.8103 6.54173 13.7257 6.5623 13.7303 6.48687C13.8012 6.42058 13.8949 6.31544 13.9817 6.28573C13.6023 6.0503 13.2115 5.84916 12.784 5.73944C12.6149 5.70058 12.4389 5.6983 12.2789 5.63887L12.2812 5.63658ZM10.0183 6.51658H10.1097C10.2103 6.61716 10.3749 6.59658 10.4503 6.73144C10.4892 6.80687 10.3795 6.79773 10.384 6.86173C10.4046 6.87773 10.4343 6.8823 10.4503 6.91201C10.5303 6.94173 10.5143 6.8663 10.5417 6.83201C10.6469 6.72687 10.6629 6.93258 10.7657 6.93258C10.8366 6.88687 10.9372 6.8823 10.9875 6.9623C11.0537 6.90287 11.1977 6.95773 11.2183 6.84801C11.3486 6.70858 11.2777 6.49373 11.4697 6.40687C11.536 6.44573 11.4652 6.50744 11.4903 6.56687C11.6206 6.62173 11.7692 6.45716 11.872 6.58744C11.776 6.31316 11.8012 5.97258 11.808 5.67087C11.1315 5.76001 10.5075 5.99087 10.0115 6.51658H10.0183ZM12.0572 7.21373C11.9909 7.1383 11.8423 7.18401 11.7555 7.21373C11.84 7.2983 11.8057 7.44916 11.856 7.5543C11.7303 7.76458 11.52 7.8103 11.3212 7.86973C11.2663 7.93601 11.28 8.08458 11.1497 8.07087C11.1086 8.1623 10.9646 8.21716 11.0195 8.35201C10.9532 8.49601 10.9852 8.68116 10.9486 8.83658C10.6995 8.99201 10.7726 8.63087 10.6469 8.55544L10.6057 8.6263C10.5555 8.64001 10.5212 8.6103 10.4869 8.57601C10.448 8.5623 10.3863 8.55087 10.352 8.58516C10.2972 8.67887 10.2126 8.7543 10.2332 8.88001C10.208 8.95544 10.0823 8.9303 10.0983 9.0103C10.2377 9.00573 10.3886 8.98058 10.5235 8.95087C10.6195 8.97601 10.6995 8.90516 10.7977 8.90058C10.832 8.91658 10.8686 8.95087 10.8572 9.00116H10.8915C10.9577 8.95087 10.9875 8.87544 10.9577 8.80001C10.9669 8.71087 11.0629 8.71087 11.1223 8.68573C11.1772 8.71087 11.1429 8.76573 11.152 8.80687C11.3417 8.87773 11.1063 9.01716 11.0812 9.11773C11.0309 9.19773 11.0812 9.3783 10.9212 9.35316C10.8915 9.34401 10.8709 9.3143 10.88 9.2823H10.8595C10.8549 9.34859 10.9052 9.4423 10.9737 9.47201C11.0926 9.37601 11.0949 9.21144 11.264 9.19087C11.3532 9.09944 11.2252 8.95544 11.3555 8.88001C11.5749 8.87544 11.8103 8.78401 11.9817 8.96001C11.968 9.03544 11.9406 9.06973 12.0023 9.13144C11.9612 9.22744 11.9315 9.33258 11.8515 9.41258C11.872 9.46744 11.856 9.53373 11.8103 9.57259C11.7509 9.82858 11.456 9.70744 11.2846 9.7943C11.5497 9.99544 11.8697 10.0709 12.2149 10.0457C12.3955 10.0366 12.3155 9.81487 12.4092 9.7143C12.4686 9.41944 12.7383 9.62287 12.9006 9.54058C12.9646 9.41487 13.0263 9.29144 13.0446 9.14973C12.9395 9.08344 12.8983 8.95544 12.9303 8.8343C12.8595 8.7383 12.8663 8.56001 12.7109 8.54401C12.6857 8.50973 12.7063 8.46858 12.7269 8.44344C12.7223 8.35201 12.816 8.3223 12.8412 8.24916C12.7452 8.18516 12.7703 8.04801 12.7772 7.96801C12.6126 8.01373 12.5966 7.79887 12.4732 7.75316C12.4435 7.65716 12.3383 7.63887 12.2537 7.62287C12.0526 7.71887 12.0183 7.47201 11.8675 7.41258C11.8515 7.36687 11.8172 7.2983 11.8675 7.26173C11.9429 7.19773 12.0435 7.25258 12.1326 7.24801L12.0617 7.20916L12.0572 7.21373ZM8.40231 8.25373C8.06174 8.36344 8.45717 8.61944 8.37259 8.82973C8.32688 8.95087 8.20117 8.83887 8.11202 8.88916L8.07774 9.11087C8.02745 9.24116 7.86288 9.14516 7.78745 9.23201C7.73259 9.31658 7.79202 9.40344 7.83774 9.47201C7.72117 9.74173 8.10288 9.8263 8.09831 10.0686C8.21717 10.2194 8.08231 10.4389 8.24917 10.5737C8.28802 10.848 8.21031 11.216 8.45031 11.4309L8.49145 11.6914C8.54174 11.872 8.27659 11.8263 8.31088 11.9863C8.36117 11.9612 8.37488 12.0274 8.37717 12.0457V12.0366C8.70174 11.6617 9.07659 11.2663 9.45831 10.9349L9.29831 10.7749C8.99888 10.3292 8.76345 9.85373 8.65145 9.33259L8.53031 9.26858C8.52574 9.40344 8.46402 9.50858 8.47088 9.64344L8.42974 9.69373C8.34059 9.68916 8.28574 9.6183 8.21031 9.57259C8.19431 9.52687 8.14631 9.45144 8.21945 9.41258C8.26059 9.40801 8.29031 9.42173 8.32002 9.4423C8.35888 9.39658 8.34059 9.32801 8.36117 9.27087C8.37488 9.1703 8.28574 9.07658 8.34974 8.98973C8.42974 8.98059 8.48917 9.07887 8.52117 9.13373C8.60117 9.15887 8.66517 9.09258 8.73145 9.06287C8.73145 8.99201 8.83202 8.89373 8.72231 8.85258C8.78174 8.68801 8.73831 8.51658 8.71317 8.35658C8.66745 8.21716 8.51202 8.2423 8.39774 8.25601L8.40231 8.25373ZM16.2766 8.39773C16.2423 8.41373 16.1966 8.4023 16.1555 8.40687C16.192 8.39087 16.24 8.39773 16.2766 8.39773ZM16.016 8.80916L16.1463 8.93944C16.2766 9.02858 16.1875 9.21601 16.3269 9.29373C16.4915 9.3783 16.5509 9.56801 16.6217 9.70973C16.6469 9.67087 16.6469 9.62516 16.6606 9.58858C16.72 9.35773 16.7109 9.09716 16.7817 8.86858C16.5303 8.8823 16.24 8.90744 16.016 8.80916ZM18.8937 8.86858L18.8229 8.8183L18.864 8.93258C18.7977 10.3337 18.3292 11.5703 17.5315 12.6674C17.376 12.8526 17.2275 13.0789 17.0355 13.2092C17.3555 13.4606 17.7075 13.84 17.9726 14.1303L18.0069 14.0663C19.2937 12.5989 20.0252 10.8983 20.1052 8.9303L20.1555 8.82973L20.0915 8.85944L18.8937 8.86858ZM17.2069 8.83887C17.232 9.09487 17.1657 9.34401 17.1475 9.59544L17.2869 9.7463C17.3257 9.80573 17.312 9.89258 17.2572 9.94059C17.1977 9.97944 17.1223 9.97487 17.0629 9.92687C16.8869 10.4914 16.6812 11.0423 16.3269 11.5337C16.1875 11.7097 16.0526 11.9543 15.872 12.0457L16.2537 12.3817C16.2743 12.3612 16.2629 12.3269 16.2675 12.2972C16.2675 12.2469 16.2926 12.1874 16.3566 12.1966C16.5417 12.192 16.5463 12.3909 16.6515 12.4914C16.6309 12.6514 16.7703 12.7772 16.7223 12.9257C17.7829 11.808 18.3132 10.4366 18.4092 8.91658L18.4686 8.8503C18.0892 8.88916 17.6915 8.86173 17.2983 8.8663L17.2046 8.83658L17.2069 8.83887ZM7.39431 8.85258L7.45831 8.95316C7.46745 9.22973 7.57488 9.49487 7.51774 9.7783C7.56345 9.6983 7.57717 9.58858 7.67774 9.5383C7.69145 9.46287 7.57717 9.4423 7.58859 9.36687C7.66859 9.21144 7.59317 8.95773 7.79888 8.89144C7.65259 8.91658 7.52231 8.9463 7.39431 8.85258ZM5.36688 8.86858L5.25259 8.90973L4.08231 8.90058C4.14859 10.2469 4.50745 11.4697 5.11317 12.5943C5.41259 13.1497 5.84917 13.6503 6.23088 14.1669L7.06745 13.3006L7.16802 13.2594C7.02631 13.1589 6.89831 12.9943 6.77717 12.8549C6.63774 12.816 6.49602 12.72 6.42288 12.5852C6.38174 12.5394 6.41831 12.4549 6.37259 12.4206L6.32231 12.4846C6.17602 12.5554 6.12117 12.4046 6.02059 12.3406C5.89031 12.2697 5.95431 12.0206 5.77602 12.0663C5.70974 12.0617 5.68688 11.9863 5.64574 11.9452C5.48117 11.9612 5.44002 11.7806 5.35088 11.6937C5.33488 11.7326 5.35088 11.7829 5.30059 11.808C5.13145 11.8469 5.07431 11.6389 4.96002 11.5566C4.93031 11.5703 4.90974 11.6023 4.86631 11.5954C4.76574 11.5063 4.69717 11.3806 4.69488 11.2412C4.55545 11.0857 4.61945 10.8366 4.64459 10.6492C4.66974 10.5989 4.74059 10.5692 4.72917 10.5052C4.76802 10.416 4.85945 10.4092 4.94859 10.4046C4.98288 10.4206 5.01488 10.4549 5.03317 10.4846C5.08802 10.4503 5.20917 10.4892 5.16345 10.368C5.23431 10.304 5.33945 10.2834 5.43774 10.2674C5.50402 10.352 5.53831 10.448 5.62745 10.528L5.56802 10.4366C5.46745 10.0252 5.38745 9.60458 5.36688 9.15887C5.37145 9.13373 5.31202 9.12001 5.34631 9.09487L5.35545 9.10858C5.36002 9.01716 5.35088 8.93716 5.36917 8.87316L5.36688 8.86858ZM7.01259 8.86858L6.92117 8.90973C6.53031 8.90058 6.12117 8.93487 5.75088 8.88001L5.80117 8.95087L5.89488 9.72573C5.93374 10.0252 6.06402 10.3109 6.05488 10.6057C6.10059 10.5417 6.07088 10.416 6.18517 10.4046C6.13945 10.3109 6.27431 10.2332 6.19659 10.1532C6.23545 9.95201 6.26059 9.7463 6.43659 9.59773C6.65145 9.58858 6.66745 9.30744 6.88231 9.29373C6.99202 9.28916 7.05831 9.43773 7.10631 9.48801C6.97145 9.32344 6.98059 9.05373 7.01488 8.86858H7.01259ZM9.17488 9.38516C9.29374 9.60458 9.35545 9.85144 9.47659 10.0709C9.55202 10.2652 9.72117 10.416 9.79659 10.6057C9.87659 10.4549 10.0366 10.3314 10.1509 10.1943C10.16 10.1303 10.1463 10.0754 10.112 10.0297C10.0732 9.94059 10.1075 9.81487 10.0412 9.73944C9.93145 9.7783 10.08 9.88573 10.032 9.94973C9.98631 9.97944 9.93602 9.94059 9.93145 9.89944C9.83545 9.88344 9.76002 9.79887 9.73031 9.70973C9.81031 9.65944 9.70974 9.63887 9.68917 9.59544C9.64802 9.57487 9.64345 9.57944 9.60917 9.61601C9.58859 9.61601 9.56345 9.62058 9.54517 9.60687C9.54517 9.36687 9.27545 9.51087 9.17488 9.38287V9.38516ZM10.496 9.71658C10.4709 9.82173 10.4 9.91316 10.3246 9.99087L10.3383 10C10.4389 9.92916 10.5097 9.79887 10.64 9.78973L10.496 9.71887V9.71658ZM13.8195 10.0617C13.824 10.1257 13.8332 10.208 13.8857 10.2629C14.0503 10.2377 13.9772 10.464 14.1303 10.4434C14.2149 10.4183 14.1349 10.3474 14.16 10.2926C14.1349 10.1669 14.0137 10.1532 13.9292 10.0777C13.92 10.0526 13.9383 10.032 13.9497 10.0114C13.8857 9.97716 13.8583 10.016 13.8195 10.0617ZM16.2012 10.0709C16.08 10.0617 15.9315 10.1349 15.8263 10.0503C15.7875 10.016 15.7623 10.0663 15.7669 10.1006C15.7257 10.1646 15.6823 10.2446 15.5863 10.2149C15.5109 10.1806 15.5109 10.1006 15.4857 10.0434C15.4903 10.0892 15.472 10.1326 15.4652 10.1737C15.376 10.2652 15.3463 10.3543 15.2846 10.4549C15.1955 10.5509 15.0537 10.5189 14.96 10.5989C14.944 10.8 14.72 10.7589 14.5943 10.8229C14.5852 10.848 14.6149 10.8526 14.6286 10.8732C14.688 10.8892 14.768 10.8892 14.8092 10.832C14.9852 10.8777 14.9486 10.656 15.0492 10.5806C15.1383 10.5669 15.2206 10.4914 15.3143 10.5509C15.4057 10.6652 15.4286 10.8274 15.4149 10.976C15.3143 11.0766 15.3646 11.2412 15.2937 11.3577C15.3097 11.4972 15.1429 11.5589 15.1635 11.6983C15.1086 11.7623 15.0172 11.7692 14.9326 11.7692C14.6012 11.6434 14.2515 11.5634 13.8812 11.5292C13.8469 11.5406 13.8263 11.5703 13.8309 11.6092C13.9817 11.6892 14.1669 11.6937 14.3269 11.76C14.4709 11.7966 14.5669 11.9749 14.7475 11.92C14.8983 11.8354 15.152 11.9703 15.2526 11.8103C15.2366 11.6549 15.3715 11.5406 15.4377 11.4057L15.488 11.392C15.5726 11.4812 15.568 11.6114 15.6046 11.7074C15.7235 11.5817 15.8149 11.4423 15.92 11.312C16.1966 10.9074 16.432 10.4754 16.5349 10.0114C16.4206 10.016 16.3086 10.0366 16.2035 10.0709H16.2012ZM10.9006 10.0709C10.72 10.3657 10.3749 10.6354 10.1235 10.9074C10.5737 11.2777 11.0789 11.5086 11.6366 11.6069C11.6663 11.4926 11.6206 11.3509 11.6777 11.2526C11.7189 11.1589 11.8332 11.1634 11.9177 11.1817C11.968 11.1772 11.9977 11.1154 11.968 11.072C11.8469 11.0469 11.9017 10.912 11.8583 10.8366C11.8629 10.7954 11.9337 10.8023 11.9177 10.7474C11.8332 10.6812 11.9589 10.6034 11.888 10.5326C11.9177 10.512 11.9383 10.4663 11.9817 10.4663C11.7166 10.6057 11.4309 10.4366 11.1955 10.3314C11.0857 10.2674 10.9257 10.2057 10.9006 10.0709ZM13.344 10.8069C13.3326 10.8412 13.2846 10.9006 13.344 10.9212C13.4446 10.816 13.6595 10.8206 13.6686 10.6697C13.5223 10.6492 13.4446 10.7292 13.344 10.8092V10.8069ZM13.8195 11.1223C13.6892 11.1223 13.6229 11.2229 13.5246 11.3029C13.408 11.3692 13.3486 11.1772 13.2503 11.2229C13.2549 11.2434 13.2755 11.2526 13.2915 11.2617C13.3166 11.2914 13.3257 11.3532 13.2915 11.3829C13.1475 11.5132 13.0812 11.3189 12.9463 11.3326V11.3829C12.9509 11.4126 12.9372 11.4583 12.896 11.4423C12.8115 11.3029 12.64 11.3532 12.5555 11.232C12.5006 11.2023 12.4503 11.2412 12.4115 11.2732C12.3817 11.3372 12.2469 11.264 12.2812 11.3737C12.176 11.4126 12.1623 11.5246 12.0869 11.5932C11.9566 11.5726 11.8972 11.7189 11.776 11.7143C11.7897 11.7394 11.776 11.7806 11.8149 11.7852C11.8903 11.8194 11.9657 11.8263 12.0595 11.8149C12.1852 11.6137 12.3955 11.7806 12.5715 11.7052C12.6812 11.7257 12.6057 11.8446 12.6857 11.8857C12.8572 11.8309 12.9875 12.032 13.1269 11.9063C13.1177 11.7074 13.3417 11.7257 13.4629 11.6754C13.6526 11.5612 13.8675 11.4103 13.8446 11.1589L13.8149 11.12L13.8195 11.1223ZM9.76002 11.2389C9.51088 11.5429 9.21831 11.8583 8.92345 12.096C9.05374 12.1052 9.12459 12.2469 9.23431 12.3109C9.86517 12.8366 10.6515 13.088 11.3829 13.2709L11.1817 13.1772C11.0309 13.0057 10.816 12.8023 10.8069 12.5623C10.9577 12.512 10.9417 12.3429 10.992 12.2309C11.1177 12.096 11.2686 12.0252 11.4332 11.9863C11.008 12.1623 10.6377 11.8469 10.2857 11.6846C10.1052 11.5497 9.86974 11.44 9.76002 11.2389ZM15.6023 12.4114L15.5726 12.3314C15.5337 12.432 15.4583 12.496 15.3829 12.5714C15.3875 12.6377 15.3623 12.7406 15.4423 12.7863C15.6115 12.8412 15.8286 12.9509 15.8675 13.1474C15.8012 13.3326 15.4469 13.5017 15.6663 13.7029C15.7372 13.8034 15.5657 13.8423 15.5955 13.9246L15.6549 13.8446C15.9063 13.648 16.1806 13.4629 16.4046 13.2183H16.4343C16.384 13.2023 16.32 13.2526 16.2629 13.2274C16.1463 13.1726 16.1235 13.0674 16.1235 12.9463L15.6069 12.4114H15.6023ZM8.83888 12.5714L8.82288 12.5417L8.83888 12.592V12.5714ZM8.97374 12.752C8.91888 12.7177 8.88459 12.6857 8.87317 12.6217L8.97374 12.752ZM9.00345 12.7863C9.02859 12.8869 9.16345 12.9509 9.12459 13.0766C9.05374 13.1909 8.90517 13.1954 8.78859 13.1909C8.54859 13.152 8.37259 13.3326 8.14402 13.36C7.93831 13.424 7.86745 13.1703 7.67774 13.1909C8.84802 14.2126 10.1852 14.8526 11.7486 14.9372L11.8675 15.0172L11.8172 14.8732V13.7623L11.7166 13.8034C10.6949 13.7532 9.79888 13.3783 9.00345 12.7863ZM16.7772 13.5726L16.7566 13.472C16.6377 13.7029 16.3772 13.8514 16.1806 14.0274C15.9063 14.3017 15.4606 14.3589 15.3235 14.7543C15.1772 14.8892 15.1269 15.0994 14.9189 15.1749C14.8435 15.376 14.6286 15.3646 14.5075 15.5109C14.1532 15.8263 13.9269 15.3097 13.6069 15.2457L12.9623 15.36C12.7383 15.36 12.5166 15.44 12.3063 15.3692C12.336 15.7989 12.336 16.2606 12.3063 16.6903L12.3863 16.64C14.4137 16.5509 16.1623 15.7829 17.664 14.4183L16.7772 13.5726ZM7.44002 13.5589L7.42631 13.6092L6.56002 14.48C7.87202 15.616 9.35317 16.3474 11.0446 16.5783C11.3143 16.624 11.6206 16.5989 11.8812 16.6789L11.8172 16.5783V15.4377L11.8583 15.3737L11.728 15.408C10.0869 15.2937 8.63774 14.7132 7.43774 13.5566L7.44002 13.5589ZM12.2423 13.8537L12.3063 13.9452C12.3063 14.2903 12.3475 14.6423 12.3063 14.9829C12.6172 14.8777 12.9783 14.8937 13.3166 14.8389C13.2503 14.8137 13.1817 14.7977 13.1315 14.7292C12.9349 14.7177 12.8412 14.5097 12.7772 14.3543C12.7475 14.24 12.8229 14.1486 12.8686 14.0526C12.784 13.8812 12.5235 14.0069 12.3726 13.9429C12.3315 13.9086 12.3017 13.8583 12.2423 13.8514V13.8537Z" fill="white"/>
    <path d="M19.9772 1.76003C20.5966 2.31088 20.8732 3.02631 21.0538 3.76688L21.1543 4.00231C20.2583 3.35774 19.4469 2.49145 18.8755 1.57945L18.1783 0.873169C18.7932 1.13374 19.4538 1.28917 19.9795 1.76003H19.9772Z" fill="white"/>
    <path d="M4.33833 2.85711C3.9269 3.36683 3.40119 3.70283 2.93262 4.1394C3.18405 3.61826 3.19319 2.99654 3.54976 2.51654C4.05947 1.62969 5.00119 1.31883 5.84233 0.989685C5.22519 1.5314 4.79547 2.21711 4.33605 2.85711H4.33833Z" fill="white"/>
    <path d="M22.1645 3.78741C22.3611 4.6697 22.0754 5.5337 22.256 6.42512L22.2468 6.43427C21.7668 5.48798 20.7451 5.04227 20.0434 4.2857C19.6365 3.83541 19.4582 3.28912 19.3577 2.70855C19.7622 3.67998 20.8457 3.89484 21.4697 4.71084C21.68 4.90055 21.7485 5.16112 21.8811 5.37598L21.9017 5.35541C21.5451 4.5897 21.4217 3.72798 21.1748 2.91198C21.0491 2.5577 20.8 2.21027 20.4685 1.98627C21.2845 2.15541 21.9954 3.00798 22.1645 3.7897V3.78741Z" fill="white"/>
    <path d="M3.57258 2.1326C2.74058 2.70402 2.79543 3.73031 2.53029 4.58517C2.44572 4.9006 2.29943 5.19088 2.22629 5.51545L2.24686 5.53145C2.38629 5.16574 2.62858 4.8206 2.93258 4.52117C3.52458 3.97488 4.40001 3.63431 4.69029 2.82517C4.67658 3.94745 3.73943 4.83202 2.84343 5.46288C2.47315 5.78745 2.11658 6.15774 1.91315 6.57374C1.89258 6.2926 1.95429 6.00688 1.93372 5.70288C1.83772 4.72231 1.76458 3.6046 2.45943 2.87545C2.75886 2.5006 3.14058 2.24002 3.57029 2.13031L3.57258 2.1326Z" fill="white"/>
    <path d="M22.6903 3.97941C23.4355 4.9897 23.5978 6.59655 23.056 7.75312C22.8549 8.24455 22.7109 8.7657 22.6309 9.3097C22.592 9.21827 22.5852 9.09027 22.5509 8.98513C22.256 7.8537 21.184 7.04684 20.7429 5.97712C20.6035 5.62741 20.4869 5.26627 20.4183 4.88684C20.8892 5.7577 22.0503 6.20798 22.3658 7.1657C22.496 7.41027 22.4869 7.71198 22.5669 7.97255C22.5829 7.97255 22.6012 7.96112 22.6012 7.94284C22.4618 6.95541 22.5052 5.91998 22.6378 4.94398C22.6286 4.4137 22.5783 3.9017 22.2835 3.49255C22.4732 3.60227 22.5578 3.81255 22.688 3.97712L22.6903 3.97941Z" fill="white"/>
    <path d="M1.7943 3.66401C1.1543 4.63544 1.68458 5.8583 1.65487 6.96458L1.5703 8.09601C1.58173 8.10515 1.58173 8.13715 1.61144 8.12573C1.6503 8.00001 1.65716 7.86515 1.6823 7.73487C1.83316 6.82287 2.62401 6.17373 3.31887 5.54287C3.46516 5.3783 3.59544 5.21144 3.67316 5.01716C3.6183 5.47201 3.4743 5.92916 3.28687 6.34973C2.74744 7.40115 1.75087 8.26287 1.5703 9.46744C1.48116 8.31544 0.69487 7.45373 0.77487 6.22858C0.749728 5.23658 1.16116 4.42516 1.74173 3.68458C1.75773 3.67544 1.77144 3.65944 1.79201 3.66401H1.7943Z" fill="white"/>
    <path d="M23.3874 10.528C22.9463 11.1543 22.4114 11.7394 22.0046 12.3794C22.0503 11.8743 22.1097 11.2526 21.9131 10.7726C21.5726 9.7417 21.2731 8.69484 21.1771 7.56341L21.1886 7.12913C21.4446 8.2857 22.5806 9.08113 22.5097 10.3771C22.5348 10.6926 22.4388 10.9577 22.3794 11.2343L22.4 11.2548L22.4503 11.1954C22.6194 10.56 22.7017 9.89256 22.9623 9.29827C23.3371 8.44341 23.7988 7.5817 23.6091 6.55084C24.176 7.76684 24.0046 9.3897 23.3851 10.5257L23.3874 10.528Z" fill="white"/>
    <path d="M1.46972 10.1257C1.59087 10.5508 1.62058 11.008 1.7943 11.408C1.8103 11.4171 1.82401 11.3988 1.83544 11.3874C1.40344 10.176 2.02515 9.0537 2.65144 8.10741C2.8023 7.85141 2.89144 7.5657 2.96687 7.27084C3.03315 7.81713 2.89601 8.44798 2.81601 9.01713C2.66515 9.73941 2.43658 10.4251 2.24001 11.1291C2.10972 11.5657 2.14401 12.064 2.2103 12.5211L2.1463 12.4708C1.68687 11.6251 0.779438 10.9646 0.509724 10.0388C0.285724 9.30284 0.139438 8.44798 0.290295 7.6457C0.361153 7.33484 0.41601 7.01484 0.550867 6.72913C0.294867 8.04113 1.17715 8.98741 1.46744 10.128L1.46972 10.1257Z" fill="white"/>
    <path d="M21.6503 12.5188C21.6206 13.0857 21.4354 13.5908 21.136 14.0457H21.1863C21.5908 13.5154 21.9063 12.9531 22.3771 12.448C23.1086 11.7417 23.8537 11.0171 23.9497 10.0388C24.1988 11.6754 23.28 13.1085 21.9223 14.0343C21.3623 14.4 20.7954 14.7405 20.256 15.1565V15.1063C21.0811 13.7348 20.6766 11.8537 21.1863 10.3497L21.376 9.84454C21.2708 10.7817 21.6777 11.5771 21.6503 12.5188Z" fill="white"/>
    <path d="M3.59091 14.3771C3.68006 14.688 3.86063 14.9669 3.9772 15.264C2.72463 14.4091 1.0172 13.5977 0.46177 12.0343C0.224055 11.4971 0.198913 10.8274 0.249198 10.208C0.34977 11.6 1.84691 12.336 2.54177 13.488C2.70634 13.7234 2.84806 13.984 3.06748 14.1829C3.0332 14.0366 2.89606 13.9086 2.84577 13.7577C2.6012 13.2731 2.51434 12.6971 2.57148 12.1143C2.64006 11.4034 2.9372 10.7429 2.82291 9.99542C3.4332 11.312 3.24806 12.9531 3.58863 14.3771H3.59091Z" fill="white"/>
    <path d="M19.7828 15.4172C19.568 15.792 19.2617 16.1532 18.9257 16.448C19.0354 16.4435 19.1314 16.3475 19.2297 16.2835C20.1348 15.3829 21.312 15.1315 22.288 14.4C22.6788 14.0892 23.0377 13.68 23.2091 13.2389C23.024 14.7315 21.5383 16.1326 20.1394 16.5783C19.4148 16.7726 18.6423 16.8343 17.9406 17.0743C19.1314 16.0526 19.0628 14.4709 19.8583 13.2686C20.1097 12.928 20.32 12.5692 20.6148 12.2469C20.1303 13.2183 20.3406 14.4755 19.7851 15.4172H19.7828Z" fill="white"/>
    <path d="M4.76347 14.1531C5.18404 15.1886 5.34404 16.3566 6.31547 17.1406C5.26404 16.7954 4.03204 16.8914 3.10633 16.2446C2.09376 15.6229 1.18862 14.5669 0.998901 13.4057C1.69604 14.9874 3.4469 15.1177 4.61947 16.08C4.83433 16.2697 5.06062 16.4343 5.30519 16.5463L5.3189 16.5326C5.04919 16.288 4.73833 16.0114 4.54862 15.696C3.8629 14.7406 4.1029 13.4034 3.58862 12.3771C4.0549 12.9371 4.48004 13.5177 4.76119 14.1509L4.76347 14.1531Z" fill="white"/>
    <path d="M17.2389 17.232C16.9829 17.4011 16.6583 17.4285 16.3932 17.5565C16.7726 17.5657 17.1154 17.4308 17.4903 17.392C18.8777 17.1725 20.4686 17.3965 21.44 16.2148C21.0789 17.04 20.1737 17.728 19.3509 18.0183C17.9337 18.5531 16.5074 17.8971 15.1497 17.6777L14.8892 17.6434V17.6343C15.536 17.488 16.1669 17.2937 16.6857 16.8274C17.4469 16.096 18.1234 15.3417 18.9692 14.7657C18.3429 15.568 18.2743 16.7131 17.2412 17.2297L17.2389 17.232Z" fill="white"/>
    <path d="M7.50852 16.8503C8.04795 17.3211 8.69481 17.5405 9.37595 17.6777C9.21138 17.7371 8.99652 17.7188 8.82052 17.7668C7.59766 18.0708 6.23309 18.5623 4.93481 18.1211C4.08909 17.856 3.21823 17.1885 2.79309 16.3543C3.91309 17.6297 5.74166 17.2045 7.23423 17.536C7.44452 17.5657 7.6388 17.6503 7.86052 17.616C7.68452 17.5017 7.43538 17.5154 7.24338 17.4148C6.07309 17.0034 5.90166 15.7371 5.26623 14.8823C6.07766 15.4217 6.75881 16.1485 7.50852 16.8503Z" fill="white"/>
    <path d="M16.6445 18.5737C17.552 18.9097 18.7314 18.8183 19.5085 18.2629C19.1085 18.7634 18.5623 19.12 17.9954 19.3234C16.7337 19.7943 15.4171 19.3029 14.432 18.5532C14.032 18.3017 13.68 17.936 13.1611 17.968C12.976 17.9634 12.7954 17.9726 12.6354 18.0183C13.5954 18.464 14.4823 19.0789 15.2983 19.8652C15.1588 20.0206 14.9828 20.1692 14.8137 20.3017C14.032 19.456 13.1611 18.6446 12.1897 18.1692C12 18.1943 11.8194 18.3086 11.648 18.4C10.8571 18.9006 10.0754 19.5429 9.48568 20.3314L8.98054 19.9154C9.78739 19.0994 10.6788 18.464 11.6548 18.0092C10.6948 17.7074 10.0685 18.5097 9.34168 18.9189C8.49139 19.5109 7.27311 19.7897 6.24682 19.3806C5.69597 19.1703 5.16111 18.864 4.76111 18.3634C5.56797 18.9189 6.77254 18.9783 7.68911 18.6149C8.92111 18.08 10.2011 17.4034 11.6845 17.728C11.9154 17.7326 12.144 17.9634 12.3611 17.7669C13.4628 17.4812 14.7131 17.6777 15.6617 18.1829L16.6423 18.5737H16.6445Z" fill="white"/>
  </g>
  <defs>
    <clipPath id="clip0_2504_8843">
      <rect width="24" height="20.3429" fill="white"/>
    </clipPath>
  </defs>
</svg>